<?xml version="1.0" encoding="UTF-8"?>
<svg id="ink-1-black_black_Image" data-name="ink-1-black + black Image" xmlns="http://www.w3.org/2000/svg" xmlns:xlink="http://www.w3.org/1999/xlink" viewBox="0 0 30.72 30.72">
  <defs>
    <style>
      .cls-1 {
        fill: none;
      }

      .cls-2 {
        fill: #442600;
      }

      .cls-3 {
        fill: #d11e1e;
      }

      .cls-4 {
        fill: #fff;
      }

      .cls-5 {
        clip-path: url(#clippath);
      }
    </style>
    <clipPath id="clippath">
      <path class="cls-1" d="M4.01,16.31c-.26.29-.45.46-.6.51-.18.05-.56-.26-.54-.44.02-.21.18-.41.47-.7l.68.64Z"/>
    </clipPath>
  </defs>
  <g>
    <path d="M0,0h30.72v30.72H0V0ZM14.32,3.61c.32.33.65.38.82.27.26-.15.24-.62,0-.87-.26-.07-.8.32-.83.6ZM16.54,3.74c.06-.1-.12-.41-.22-.47s-.38,0-.46.12.1.44.22.5c.1.05.38-.03.45-.15ZM13.62,4.2l-.66.66.6.6.66-.66-.6-.6ZM7.02,5.25c.3-.21.13-.85-.15-.89-.15-.02-.61.1-.58.26l.07.52c.02.12.55.18.66.11ZM8.62,4.85l-.52-.52c-.3.17-.54.62-.31.84s.68,0,.83-.31ZM15.5,4.84c-.05-.14-.33-.43-.52-.49-.17-.05-.56.14-.58.34-.04.36.28.65.53.74l.57-.59ZM16.77,4.59c-.23-.27-.88-.31-.99.04-.07.21.07.56.21.66.13.1.52.07.57-.08l.21-.62ZM17.93,5.11c-.03-.3-.42-.63-.64-.62-.13.3-.08.54.06.68.11.11.52.09.58-.05ZM15.39,6l-.4-.48-.7.5c.15.45.41.57.77.56.2,0,.47-.43.33-.59ZM16.28,6.8l.65-.61-.67-.68-.61.66c.17.2.45.48.64.63ZM6.76,5.67c-.33.09-.62.48-.48.67.1.14.4.34.57.33.19-.01.46-.37.43-.55-.03-.17-.34-.5-.51-.45ZM8.61,6.16l-.44-.47c-.25-.05-.53.21-.48.53.04.25.14.34.38.38.27.04.54-.24.54-.43ZM11.62,6.28c.28.35.57.51.72.4s.38-.35.38-.5-.23-.37-.46-.56c-.2.12-.54.47-.65.66ZM14.13,6.04c-.19-.28-.51-.43-.69-.36-.24.09-.45.3-.43.47.03.22.35.64.52.57.27-.11.56-.47.6-.69ZM18.04,6.42c.11-.12.08-.58-.06-.67-.11-.07-.24-.03-.51.01-.16.02-.4.31-.37.48.02.14.23.37.34.45s.43-.08.61-.27ZM19.3,6.6c0-.41-.37-.78-.69-.8-.1.3-.06.63.09.72s.47.15.59.07ZM17.69,8.2l.6-.64-.71-.72-.6.62c.24.3.47.53.71.74ZM10.78,8.19l.75-.68-.61-.6-.72.71.58.57ZM12.69,7.5c0-.28-.23-.51-.51-.51s-.51.23-.51.51.23.51.51.51.51-.23.51-.51ZM13.44,7.96c.19.1.55-.37.46-.63-.08-.23-.32-.44-.6-.28-.13.08-.33.32-.35.45s.26.32.5.45ZM6.22,7.76c.25.27.6.34.74.23.16-.13.27-.41.23-.72-.03-.22-.56-.27-.76-.12-.14.1-.33.47-.21.6ZM7.73,7.79c.05.18.53.29.68.17s.21-.51.13-.69c-.07-.16-.46-.2-.68-.15-.16.03-.18.38-.13.67ZM9.52,7.99c.22-.36.22-.62,0-.98l-.53.5.53.48ZM14.95,8.05c.27-.27.4-.44.34-.56-.08-.14-.33-.49-.44-.4l-.46.4.56.55ZM16.74,7.33c-.15-.31-.76-.3-.84-.09-.11.31.05.71.32.75s.64-.38.52-.66ZM19.41,7.23c-.05-.16-.53-.2-.65-.09s-.3.34-.4.48l.53.51c.41-.1.66-.45.52-.9ZM20.59,7.89c.12-.37-.28-.73-.59-.67-.17.04-.16.45-.04.58.17.17.56.29.63.09ZM4.24,16.5c-.06-.27.19-.81.43-.69.33.17.64.27.99.26.08-.09.19-.4.18-.54,0-.12-.15-.3-.29-.49-.15-.21.4-.77.61-.59.28.24.64.43.97.19.13-.19-.08-.6-.22-.88s.26-.63.54-.83l-.66-.69.64-.64-.61-.74.69-.55.56.63-.58.66.59.64-.57.63c.07.14.3.43.44.49s.43-.03.64-.12l-.43-1.05.59-.61-.65-.66.65-.65-.41-.43c-.2-.21,0-.62.32-.77.25-.11.46.04.76.46l.71-.64-.63-.63-.92.81c-.03-.31-.06-.55-.21-.63s-.54.03-.62.16c-.1.16-.2.58-.07.65l.52.25-.81.81c-.22-.25-.43-.48-.62-.65l-.64.56-.22-.12s-.03.18-.02.3c.28-.06.58.12.69.4.09.23-.21.65-.42.66-.12,0-.31-.06-.3,0l.05.31s.24-.11.27-.09l.59.56-.67.69.61.71-.62.59c-.29-.14-.59-.46-.6-.69l.51-.54-.5-.81-.82.81.72.61-.68.63c-.18-.17-.39-.42-.61-.67l-.77.77.65.67-.62.62c-.23-.1-.45-.4-.59-.74l-.7.76.38.56c.07.11-.08.38-.13.53s.18.46.33.48c.7.12,1.69-.13,1.55-.71ZM11.46,8.9c-.26-.3-.53-.51-.76-.59-.21.2-.43.47-.39.62s.24.38.44.56c.21-.15.47-.37.72-.58ZM12.23,9.32c.18-.17.38-.42.34-.55-.05-.16-.23-.45-.32-.48l-.57.35c-.1.06-.07.46.05.5l.51.18ZM19.64,8.86l-.71-.61c-.28.23-.52.57-.45.77.07.17.38.38.55.45l.61-.61ZM7.27,9c.03-.39-.38-.71-.76-.59-.24.2-.33.42-.2.77.08.06.34.21.51.26.15.04.44-.27.45-.45ZM16.26,8.4l-.48.48.48.48.48-.48-.48-.48ZM17.51,9.3c.11.12.48-.07.54-.22.05-.13.04-.41-.03-.52s-.41-.17-.52-.09-.42.36-.33.45l.34.38ZM28.28,15.24l-.35.37.55.75-.63.59c-.39,0-.68-.58-.48-.79.19-.2.35-.41.31-.56-.04-.16-.27-.47-.43-.45-.14.02-.37.19-.55.33-.19.15-.53.04-.65-.12-.2-.27-.11-.63.11-.81.07-.06.26-.27.21-.33l-.25-.28c-.54-.61-.67.54-1.34.13-.18-.11-.3-.38-.17-.54.22-.26.33-.44.33-.61,0-.21-.28-.49-.45-.47-.2.03-.47.19-.69.34-.24.16-.74-.36-.6-.59l.35-.61c.07-.12-.17-.54-.31-.51-.23.04-.56.26-.84.41-.22.09-.71-.51-.61-.68.17-.2.35-.42.39-.58.04-.13-.13-.42-.26-.46-.3-.1-.65.17-.93.46l-.63-.65c.27-.3.39-.42.47-.58.06-.12-.05-.45-.16-.53-.21-.16-.82.03-.87.27-.06.32.19.56.52.81l-.53.6c.04.28.36.6.65.66l.55-.55.65.65-.47.48c-.06.33.28.74.61.83l.6-.59c.24.23.55.57.53.74-.2.25-.38.45-.36.61s.29.43.45.45.37-.17.6-.32.78.44.67.67l-.36.48c-.07.1.12.42.24.46.3.11.67-.07.97-.33l.6.64c-.43.3-.53.55-.32.99.8.46.92-.6,1.5.13.11.14,0,.42-.24.67.03.1.22.36.36.42s.53,0,.7-.04c.58-.1.83-.39.9-.95.05-.4.07-.78-.37-1.01ZM13.36,8.55c-.24.14-.31.41-.18.53.22.2.43.34.53.23.15-.16.26-.47.2-.62-.05-.12-.44-.2-.55-.13ZM14.94,8.4l-.54.54.48.48.54-.54-.48-.48ZM22.11,9.13l-.59-.64c-.09.02-.29.31-.28.45s.21.35.33.41.47-.09.54-.23ZM10.09,10.14l-.63-.61-.51.6c-.19.23.33.83.59.63.21-.16.42-.44.55-.63ZM11.27,10.49c-.03-.37-.18-.64-.44-.97l-.61.6c.05.15.29.47.46.5.15.03.42-.06.59-.14ZM12.6,10.29c-.01-.18-.33-.52-.46-.54-.22.19-.46.46-.35.55l.41.37c.09.08.4-.26.4-.39ZM18.01,10.29c-.02-.18-.33-.52-.46-.54-.24.21-.42.43-.32.53l.38.4c.08.09.42-.27.4-.39ZM18.47,10.27c.29.3.47.42.71.36.14-.03.27-.27.26-.42-.01-.17-.19-.4-.35-.54l-.62.6ZM13.56,9.78l-.48.48.48.48.48-.48-.48-.48ZM15.12,10.54c.19-.26.22-.49.08-.6-.17-.13-.48-.07-.61.11-.08.11,0,.42.09.53.07.08.37.07.45-.05ZM16.12,9.87c-.24.18-.32.53-.19.61s.36.18.43.2c.25-.25.32-.38.34-.53-.16-.19-.47-.36-.58-.28ZM23.54,10.5l-.77-.72c-.22.39-.22.67.02.82.28.17.48.21.75-.1ZM9.82,11.93c.23-.37-.15-.88-.41-.96-.24.09-.59.51-.47.75.1.2.69.34.87.21ZM20.34,12.13l.53-.51c-.09-.24-.35-.47-.54-.58l-.54.55.55.54ZM11.21,11.73c.06-.18-.28-.59-.44-.56-.17.11-.49.36-.4.46l.42.45c.08.09.37-.23.42-.36ZM12.24,11.1l-.54.54.48.48.54-.54-.48-.48ZM13.47,11.19c-.2.13-.32.45-.24.56s.34.29.45.21.25-.33.24-.47-.34-.37-.45-.3ZM15.15,11.93c.27-.34-.01-.72-.32-.71-.19,0-.37.4-.26.55.12.17.49.29.59.16ZM16.09,11.23c-.15.04-.26.37-.2.51.07.18.43.33.54.23.13-.12.26-.48.17-.61-.08-.11-.33-.17-.52-.13ZM17.2,11.67c-.04.14.39.44.48.32l.31-.43c.07-.1-.23-.42-.36-.39-.15.03-.38.35-.43.5ZM19.48,11.7l-.59-.58c-.2.25-.3.4-.29.54s.31.42.42.34l.46-.3ZM24.83,11.79l-.61-.62c-.37.14-.37.46-.15.7.23.26.55.35.76-.08ZM9.91,12.97c.05-.18-.41-.57-.55-.45-.2.18-.4.43-.34.56.07.14.33.37.48.35.13-.02.35-.28.4-.46ZM10.86,12.48l-.48.48.48.48.48-.48-.48-.48ZM12.18,12.48l-.48.48.48.48.48-.48-.48-.48ZM15.34,12.86l-.53-.37c-.16.14-.34.39-.29.51s.29.31.42.34.33-.25.39-.48ZM19.26,13.18c.03-.2.03-.44-.05-.53-.06-.07-.33-.16-.41-.1-.15.11-.25.52-.16.66s.59.14.62-.03ZM21.66,12.51c-.19.09-.47.42-.38.56.1.15.42.43.55.33.16-.13.4-.41.33-.57-.06-.14-.38-.38-.51-.32ZM13.3,12.66c-.12.09-.1.49,0,.61s.4.19.47.06c.09-.14.17-.42.15-.56s-.45-.24-.62-.11ZM16.08,12.64c-.2.15-.27.43-.16.52.13.1.42.22.51.13.09-.11.2-.32.19-.45s-.43-.28-.54-.19ZM17.96,13.13v-.43c-.1-.1-.52-.12-.62.01s-.03.54.12.61c.14.06.5-.04.5-.19ZM20.16,12.64c-.18.14-.26.43-.15.51.13.1.42.22.51.13.09-.11.2-.32.19-.45s-.43-.28-.55-.19ZM26.12,13.27c.1-.21-.3-.72-.54-.67-.34.07-.32.49-.16.68.14.17.58.25.7,0ZM8.61,14.32l-.44-.47c-.25-.05-.53.21-.48.53.04.25.14.34.38.38.27.04.54-.24.54-.43ZM11.19,14.62c.19-.15-.02-.65-.32-.81l-.52.51c.14.37.46.6.84.3ZM23.2,14.7c.21-.19.35-.5.26-.61-.11-.15-.39-.29-.51-.18-.16.15-.31.47-.25.61.06.12.38.28.49.18ZM9.91,14.37c-.02-.14-.27-.38-.4-.44-.11-.05-.35.22-.45.36s.21.44.38.46c.15.02.49-.24.47-.38ZM12.18,13.8l-.48.48.54.54.48-.48-.54-.54ZM13.49,14.72c.11.11.47-.23.45-.39s-.27-.43-.43-.42c-.13.01-.32.2-.47.37l.45.43ZM15.12,14.62c.2-.27.23-.49.08-.61-.17-.13-.49-.06-.61.11-.08.11,0,.42.09.54.07.08.36.07.45-.04ZM16.58,14.5c.08-.13,0-.47-.14-.54s-.48.06-.55.19.15.41.28.49l.2.12s.11-.12.2-.26ZM17.7,14.69c.26-.05.26-.61.01-.75-.16-.09-.56.16-.52.33.03.15.36.45.51.42ZM18.8,13.97c-.13.12-.22.46-.13.6.07.1.3.15.44.1.13-.05.2-.34.18-.5-.02-.12-.22-.17-.49-.2ZM20.19,13.96c-.26.12-.34.52-.19.62.11.07.29.13.43.15s.25-.38.22-.52c-.03-.12-.35-.3-.47-.24ZM21.98,14.51c.08-.14,0-.48-.13-.55s-.48.05-.55.19c-.06.13.15.41.28.49l.21.12s.12-.13.19-.25ZM27.61,14.6c-.11-.24-.47-.63-.73-.67-.12-.02-.33.3-.26.4l.22.35c.05.08.28.26.36.21l.42-.29ZM6.94,24.68c-.22-.16-.69.21-.69.5,0,.22.31.68.5.58l.52-.29c.25-.14.74.68.92.46l.26-.32c.08-.1.33-.29.43-.23.41.24.52.71.63.56l.2-.27c.08-.1.29-.28.42-.3.27-.04.67.81.82.57l.26-.41.55-.18.33.55c.16.27.66-.74.92-.56.35.24.49.75.6.59l.19-.26c.09-.12.41-.44.52-.33l.44.43c.18.17.6-.23.62-.53.02-.23-.18-.53-.38-.76.14-.17.4-.47.4-.65s-.26-.49-.39-.65l.38-.58c.09-.13-.15-.48-.29-.63-.27-.3.51-.77.26-1.09l-.36-.47c.14-.19.39-.48.39-.66s-.24-.47-.43-.68c.33-.23.55-.65.31-.96-.1-.14-.21-.29-.24-.39-.05-.21.45-.51.35-.72-.18-.4-.54-.51-.3-.8.13-.16.32-.46.21-.55l-.43-.38c-.42.38-.87.28-1.3-.03-.46.32-.99.38-1.37-.09-.79.85-1.2-.27-1.98.4-.45-.38-.98-.29-1.47-.02-.29-.14-.73-.34-1.02-.16l.06.98c0,.13-.07.44-.18.48-.34.11-.52-.38-1.05-.15-.09.04-.12.13-.21.32l.13.51c.08.3.65-.28,1.12-.31.22.24.27.82,0,1-.15.1-.56-.1-.67-.23-.24-.05-.51,0-.57.15-.08.21-.08.55.05.65s.51.23.62.1c.12-.15.47-.34.57-.24.09.08.17.31.21.49.03.14-.17.51-.31.49-.12-.01-.3-.12-.49-.28-.13-.11-.43-.04-.6.14-.13.14-.13.45,0,.59.11.12.45.26.56.16.2-.2.49-.44.76-.14.12.13.14.4.03.64-.04.09-.3.27-.38.21l-.36-.27c-.27-.21-.64.06-.74.42-.07.27.17.68.55.51.19-.08.53-.35.76-.25s.24.83,0,.93-.57-.14-.78-.26c-.31-.17-.6.32-.54.62.05.24.48.53.67.38.21-.17.41-.3.56-.32.14-.02.31.34.31.5,0,.17-.16.52-.3.51s-.39-.18-.55-.31c-.13-.11-.5.08-.6.24-.08.13-.03.41.06.54.12.17.42.26.54.16.19-.16.41-.3.55-.32s.31.34.31.52c0,.14-.21.45-.34.47s-.32-.13-.53-.28ZM24.97,15.67l-.57-.57-.37.55c-.07.11.23.47.36.43.18-.05.46-.29.59-.42ZM7.2,15.8c-.02-.26-.39-.59-.59-.56-.15.02-.4.37-.32.5s.29.34.42.42c.12.08.51-.2.49-.36ZM16.09,15.3c-.15.04-.27.42-.18.55.08.12.37.24.49.18s.25-.42.22-.55-.34-.23-.53-.18ZM18.22,15.57l-.63-.28c-.14-.06-.36.32-.3.46.05.12.33.38.42.3l.52-.48ZM22.46,15.78c.11.15.36.47.48.38.15-.12.34-.31.44-.44.09-.11-.2-.47-.34-.49l-.58.55ZM19.42,15.57c-.12-.18-.64-.29-.77-.17-.17.14-.12.44.02.53.19.14.36.25.48.17.1-.07.34-.43.27-.53ZM20.83,15.57c-.11-.2-.67-.28-.87-.15-.13.09-.1.47.02.55.15.11.38.2.52.16s.4-.44.34-.56ZM22.24,15.78c-.04-.51-.91-.6-1.09-.24.06.25.33.59.54.63.17.04.56-.22.55-.39ZM5.34,16.57c-.25.1-.46.42-.38.59.09.2.42.39.58.32.19-.09.38-.43.34-.6-.03-.15-.39-.37-.54-.32ZM18.97,17.51c.11-.04.4-.26.43-.41.03-.13-.24-.42-.37-.51s-.5.26-.43.4c.06.12.19.29.37.52ZM20.66,17.35c.23-.2-.14-.82-.36-.72-.29.13-.43.45-.32.62.13.2.44.31.68.1ZM21.66,16.57c-.31.11-.48.41-.36.67.07.15.36.26.6.2.16-.04.29-.28.28-.49s-.33-.44-.52-.37ZM22.83,16.6c-.27.13-.33.53-.19.73.08.12.32.14.54.07.16-.05.21-.33.19-.53-.02-.15-.41-.34-.54-.27ZM26.28,16.94c-.18-.21-.5-.45-.59-.34l-.34.43c-.07.1.22.37.35.37.17,0,.5-.31.58-.46ZM16.08,16.72c-.18.13-.26.43-.15.51.13.1.42.22.51.13.1-.11.2-.32.19-.45s-.43-.28-.55-.18ZM17.94,17.31c.01-.19.02-.55-.13-.6-.18-.05-.56.08-.61.28-.02.09.09.35.19.34l.55-.03ZM24.28,16.68c-.15.19-.3.39-.22.5.1.14.4.31.5.21.11-.11.19-.4.15-.53-.04-.11-.33-.2-.43-.18ZM5.46,17.9c-.25.02-.52.31-.5.52.01.18.31.43.49.4.2-.03.48-.31.46-.5-.01-.15-.28-.43-.44-.42ZM20.6,18.76c.31-.25.04-.7-.27-.86l-.42.41c0,.23.48.63.69.45ZM21.54,18.8c.37.03.68-.12.64-.5-.02-.21-.24-.42-.47-.39-.29.03-.47.33-.44.57l.03.25s.15.07.24.07ZM23.37,18.1l-.56-.17c-.21.13-.32.44-.17.75.17.12.27.15.67.02l.06-.6ZM16.39,18.86c.1-.11.26-.48.21-.64-.04-.14-.41-.26-.51-.19s-.32.35-.22.43l.52.39ZM19.2,18.7c.2-.26.22-.49.08-.6-.18-.13-.48-.08-.62.11-.08.11,0,.42.09.53.07.09.36.07.45-.04ZM24.37,18.04c-.14,0-.29.34-.29.51,0,.12.29.22.43.18.11-.04.21-.27.23-.41.02-.12-.21-.27-.38-.28ZM5.71,20.14c.13-.04.24-.48.17-.59s-.25-.27-.34-.32c-.34.14-.52.15-.53.29-.01.2,0,.41.02.54s.51.13.68.09ZM20.34,20.29l.56-.54-.56-.55-.54.54.54.55ZM16.09,19.38c-.15.04-.27.42-.18.55.08.12.37.24.49.18s.25-.42.22-.55-.34-.23-.53-.18ZM18.87,19.35c-.19.12-.32.45-.24.56s.34.29.45.21c.11-.09.25-.33.24-.47s-.35-.37-.45-.3ZM22.12,20.06c.21-.17,0-.71-.21-.7h-.62s0,.72,0,.72c.16.05.67.11.83-.01ZM22.95,20.23c.19-.07.5-.45.42-.61s-.45-.34-.58-.25-.26.42-.24.57c.02.13.27.34.39.3ZM24.67,20.02c.05-.16.1-.58,0-.58h-.46c-.14.01-.12.46-.03.56s.45.14.49.02ZM5.34,20.65c-.27.1-.47.44-.38.6.1.2.43.4.61.34.21-.08.37-.43.31-.62-.05-.15-.39-.37-.54-.31ZM20.32,20.64c-.25.25-.41.44-.34.57s.31.32.43.29c.14-.04.38-.37.28-.47l-.38-.38ZM22.19,20.94l-.33-.3c-.12-.11-.61.33-.57.41l.09.19.19.26c.11.15.7-.48.63-.55ZM16.63,21.12c0-.2-.17-.37-.37-.37s-.37.17-.37.37.17.37.37.37.37-.17.37-.37ZM18.02,20.94c-.06-.08-.35-.17-.48-.17-.11,0-.32.27-.33.38-.02.15.37.41.49.32.1-.08.23-.31.33-.54ZM19.12,20.75l-.43.08c-.05.01-.23.18-.19.22l.21.21c.07.07.3.2.41.23.22.04.25-.79.01-.74ZM23.18,21.48c.16,0,.25-.47.16-.6s-.54-.11-.62.03c-.06.17.23.57.45.57ZM5.34,21.97c-.27.1-.46.44-.38.6.1.2.44.4.61.34.21-.08.37-.44.31-.62-.05-.15-.39-.37-.54-.31ZM16.26,21.96l-.48.48.48.48.48-.48-.48-.48ZM17.67,22.87c.13.02.4-.27.32-.37l-.31-.43c-.07-.1-.47.16-.48.29,0,.17.29.48.47.51ZM19.29,22.27c-.03-.13-.32-.2-.43-.13-.15.09-.31.34-.26.47.04.1.29.3.39.27.18-.04.35-.36.29-.6ZM20.32,22.12c-.13,0-.49.28-.4.37.13.12.32.27.45.32s.34-.31.31-.44c-.03-.11-.24-.25-.36-.25ZM21.81,22.87c.13,0,.29-.32.21-.43s-.33-.28-.48-.33c-.12-.04-.26.37-.19.48s.31.27.45.27ZM22.95,22.87c.13.03.45-.2.43-.33-.02-.14-.08-.37-.13-.49l-.55.36c-.11.07.12.43.25.46ZM5.61,24.29c.17-.05.31-.38.29-.57-.01-.16-.24-.41-.42-.38-.32.06-.55.26-.52.56.03.36.34.49.65.39ZM16.51,24.14c.13-.13.16-.5,0-.63-.12-.1-.48-.05-.58.06-.12.14-.23.25-.17.31l.22.21.27.26s.18-.12.26-.2ZM17.55,23.43c-.18.12-.31.45-.23.55s.34.3.45.21c.11-.09.25-.33.24-.47s-.34-.37-.46-.3ZM18.86,23.44c-.18.11-.31.45-.23.56s.34.3.45.21c.11-.1.25-.33.25-.47s-.35-.37-.46-.3ZM20.16,23.48c-.16.1-.27.39-.19.5.1.14.3.26.43.24.16-.03.28-.31.28-.44,0-.17-.36-.39-.52-.29ZM21.67,24.22c.12.12.42-.31.37-.47-.05-.14-.32-.38-.44-.3s-.32.37-.24.45l.31.31ZM23.4,23.84c0-.2-.16-.36-.36-.36s-.36.16-.36.36.16.36.36.36.36-.16.36-.36ZM24.16,23.59c-.12.19-.11.53.01.56.16.04.31.03.49-.05.12-.14.13-.34.02-.47.06-.1-.45-.15-.52-.04ZM25.56,23.55c-.12.07-.13.42-.03.5.12.09.4.19.45.08.08-.17.12-.37.09-.5-.03-.11-.41-.14-.51-.08ZM5.27,24.76c-.31.1-.41.46-.29.65.09.15.36.26.46.27.35-.14.45-.35.46-.56-.1-.28-.34-.46-.63-.37ZM17.74,25.57c.16-.18.32-.5.24-.6-.06-.08-.27-.24-.37-.2-.18.07-.5.38-.42.51.1.17.42.42.55.28ZM19.03,25.69c.26-.27.4-.43.34-.56s-.36-.45-.47-.36l-.44.36.57.56ZM21.76,25.65c.17-.23.3-.45.29-.57s-.24-.36-.35-.31c-.17.08-.48.4-.41.54.07.12.36.34.46.34ZM23.31,25.49c.27-.34,0-.72-.32-.71-.19,0-.37.4-.26.55.12.17.49.29.59.16ZM16.26,24.72l-.48.48.48.48.48-.48-.48-.48ZM20.34,24.72l-.48.48.48.48.48-.48-.48-.48ZM24.75,25.2c0-.2-.16-.36-.36-.36s-.36.16-.36.36.16.36.36.36.36-.16.36-.36ZM25.64,24.88c-.21.14-.33.42-.22.51s.41.17.48.12c.15-.09.22-.27.15-.43s-.24-.25-.41-.2ZM6,26.46l-.53-.56c-.28.2-.47.39-.69.7.27.2.55.36.75.34.17-.02.48-.36.47-.48ZM7.45,26.6l-.74-.76-.62.76c.26.17.51.33.69.34.17.01.48-.19.67-.35ZM8.64,26.66l-.38-.66c-.27.06-.55.37-.69.69.27.37.88.36,1.07-.03ZM9.92,26.53c0-.24-.2-.44-.44-.44s-.44.2-.44.44.2.44.44.44.44-.2.44-.44ZM11.18,26.83c.18-.23-.03-.6-.32-.78l-.56.55.36.36c.08.08.45-.04.52-.13ZM12.49,26.83c.25-.22-.13-.82-.35-.72-.26.11-.39.46-.34.67.04.17.51.22.69.05ZM16.62,26.8c.1-.3-.08-.57-.39-.77l-.33.8c.12.12.66.15.72-.04ZM18.12,26.6l-.54-.56c-.19.2-.4.38-.4.53s.28.41.43.42.41-.23.51-.39ZM18.47,26.6c.15.19.37.39.52.39s.44-.27.44-.42-.2-.33-.39-.53l-.56.57ZM20.65,26.83c.25-.22-.12-.82-.36-.72-.26.11-.39.47-.34.67.05.17.51.22.69.06ZM22.11,26.65c-.06-.23-.36-.57-.48-.58-.23.2-.45.46-.36.58s.29.28.41.34.46-.21.43-.34ZM13.87,26.2l-.62.05c-.15.06-.16.46-.03.56.17.13.47.19.59.09s.13-.52.07-.71ZM15.32,26.85l-.26-.67c-.28.07-.59.29-.53.61.04.19.5.21.79.06ZM22.54,26.61c.21.26.49.44.62.36s.3-.35.33-.5c.02-.13-.33-.4-.43-.31l-.52.45ZM24.83,26.87l-.1-.57c-.02-.13-.53-.18-.57-.05l-.16.61h.83ZM26.2,26.93l-.29-.75c-.04-.1-.48.03-.49.13l-.08.5c.16.06.38.08.86.11ZM2.64,27.41c-.24.04-.55.49-.45.65.09.13.4.34.56.33.18-.01.48-.36.42-.54-.05-.16-.36-.47-.54-.44ZM4.16,28.32c.07-.06.19-.4.19-.54,0-.12-.25-.27-.4-.28-.15-.01-.4.34-.28.43l.49.39ZM5.17,27.63c-.12.06-.12.42-.03.52.1.12.38.17.47.07.11-.15.15-.38.08-.5-.05-.1-.4-.15-.52-.09ZM7.13,27.93c0-.21-.17-.38-.38-.38s-.38.17-.38.38.17.38.38.38.38-.17.38-.38ZM8.28,28.25c.13-.09.19-.58.05-.64s-.57,0-.61.14c-.05.2.4.62.56.5ZM9.27,27.64c-.1.12-.14.42-.06.52.1.12.41.18.46.06.07-.17.12-.37.09-.5-.02-.11-.42-.17-.49-.08ZM11.15,27.69c-.06-.17-.59-.11-.69.04-.06.1.04.42.13.48s.28.03.39-.02.21-.39.17-.51ZM11.91,27.68c-.09.14-.11.53.02.55.18.03.3.02.49-.05.12-.14.13-.34.02-.47.07-.11-.45-.14-.53-.03ZM13.35,27.64c-.09.11-.14.42-.06.52.1.12.41.18.46.06.07-.17.11-.37.09-.5-.02-.11-.42-.17-.49-.08ZM14.67,27.66c-.11.09-.16.42-.05.51.15.12.39.16.47.04.11-.17.22-.45.13-.56-.07-.09-.46-.07-.55,0ZM15.99,27.67c-.1.18-.12.54,0,.56.2.03.29.03.5-.05.12-.14.13-.34.02-.47.07-.11-.46-.14-.52-.04ZM17.44,27.63c-.1.13-.14.42-.06.52.1.13.41.18.46.06.07-.17.11-.37.09-.5-.02-.11-.42-.18-.49-.09ZM18.73,27.67c-.14.17-.09.5.03.56.13.06.34.06.41-.03.1-.14.17-.4.09-.51-.06-.09-.47-.11-.54-.02ZM20.07,27.67c-.11.18-.11.53.02.56.15.03.31.02.49-.05.12-.14.13-.34.02-.47.06-.11-.46-.14-.52-.04ZM21.48,27.63c-.11.07-.12.4-.03.52s.4.19.45.07c.08-.18.13-.37.1-.5-.02-.11-.42-.15-.52-.09ZM22.81,27.66c-.13.16-.09.5.03.56s.35.08.41-.01c.09-.14.12-.37.07-.49-.04-.1-.44-.15-.51-.06ZM24.15,27.68c-.08.14-.1.52.02.55.16.03.31.02.49-.05.12-.14.13-.34.02-.47.07-.11-.46-.14-.53-.02ZM25.46,27.68c-.05.17.09.51.2.6.09.07.34-.04.39-.15.06-.16.06-.37-.02-.48-.07-.09-.53-.08-.56.03Z"/>
    <path class="cls-4" d="M6.94,24.68c.2.16.39.3.53.28s.34-.33.34-.47c0-.17-.17-.53-.31-.52s-.36.16-.55.32c-.12.1-.42,0-.54-.16-.09-.12-.14-.41-.06-.54.1-.17.47-.35.6-.24.16.13.41.3.55.31s.3-.33.3-.51c0-.16-.16-.52-.31-.5-.15.02-.35.15-.56.32-.19.16-.61-.13-.67-.38-.06-.3.22-.79.54-.62.22.12.55.36.78.26s.24-.83,0-.93-.58.16-.76.25c-.38.17-.62-.24-.55-.51.09-.36.46-.63.74-.42l.36.27c.08.06.33-.12.38-.21.12-.24.09-.51-.03-.64-.26-.3-.56-.05-.76.14-.11.1-.45-.04-.56-.16-.13-.14-.14-.45,0-.59.17-.18.47-.25.6-.14.19.16.37.27.49.28.14.02.34-.35.31-.49-.03-.18-.12-.41-.21-.49-.11-.1-.45.09-.57.24-.1.13-.48,0-.62-.1s-.13-.45-.05-.65c.06-.15.33-.21.57-.15.11.13.52.33.67.23.27-.18.22-.76,0-1-.46.03-1.04.61-1.12.31l-.13-.51c.09-.19.12-.28.21-.32.53-.23.71.26,1.05.15.11-.04.19-.35.18-.48l-.06-.98c.29-.17.72.02,1.02.16.5-.27,1.02-.36,1.47.02.78-.68,1.19.45,1.98-.4.37.48.9.42,1.37.09.43.32.88.41,1.3.03l.43.38c.11.1-.08.39-.21.55-.23.29.12.4.3.8.1.21-.39.51-.35.72.02.1.13.26.24.39.24.32.02.73-.31.96.19.21.43.49.43.68s-.25.48-.39.66l.36.47c.24.32-.53.8-.26,1.09.14.15.38.49.29.63l-.38.58c.12.16.39.47.39.65s-.25.48-.4.65c.2.23.4.54.38.76-.03.3-.44.7-.62.53l-.44-.43c-.11-.1-.43.21-.52.33l-.19.26c-.11.16-.25-.35-.6-.59-.25-.17-.75.83-.92.56l-.33-.55-.55.18-.26.41c-.15.24-.55-.61-.82-.57-.12.02-.34.2-.42.3l-.2.27c-.11.15-.21-.33-.63-.56-.11-.06-.35.13-.43.23l-.26.32c-.19.23-.68-.59-.92-.46l-.52.29c-.19.11-.5-.36-.5-.58,0-.29.47-.66.69-.5ZM8.84,15.86c-.35.05-.55.31-.5.59.03.2.28.36.53.34s.41-.18.4-.42c0-.22-.25-.54-.43-.51ZM10.03,15.9c-.26.03-.35.48-.27.72.05.15.33.18.6.16.19-.01.33-.34.27-.63-.04-.17-.25-.29-.61-.25ZM11.26,15.84c-.22.27-.28.55-.12.79.1.15.4.19.7.11.11-.19.15-.31.11-.75l-.7-.14ZM12.6,15.92c-.21.09-.28.52-.16.68.13.19.59.27.75.15.15-.11.24-.51.11-.67s-.44-.27-.7-.16ZM14.74,16.46c.08-.25-.33-.65-.57-.61-.19.03-.4.37-.4.54,0,.23.22.44.44.45.15,0,.47-.17.53-.38ZM10.08,17.22c-.26.05-.51.45-.41.62s.38.38.54.35c.19-.04.47-.4.45-.58-.02-.17-.4-.42-.58-.38ZM11.72,18.17c.17-.03.33-.39.31-.57-.02-.16-.24-.41-.41-.38-.37.07-.59.22-.57.52.02.38.31.5.68.43ZM12.87,17.2c-.34.09-.6.43-.45.64.1.14.4.4.56.37.19-.03.43-.42.43-.61,0-.17-.37-.46-.54-.41ZM14.18,17.2c-.27.09-.54.48-.43.64.12.18.38.38.54.35.21-.05.52-.39.46-.57-.05-.16-.4-.48-.58-.42ZM8.55,17.32c-.22.11-.28.51-.14.63.18.15.49.26.6.24.24-.33.25-.49.24-.76-.17-.13-.5-.2-.69-.11ZM13.41,19.03c.08-.21-.38-.61-.57-.51-.3.16-.47.35-.45.62,0,.18.23.39.41.41.27.02.49-.14.62-.51ZM13.92,19.39c.22.29.63.18.8-.06.12-.16-.03-.57-.22-.74-.14-.12-.5.01-.7.17-.11.08,0,.46.12.63ZM9.24,19.21c.06-.17.1-.38.02-.45-.06-.06-.3-.17-.39-.17-.19-.02-.54.25-.55.42,0,.19.23.48.41.51.15.02.45-.16.51-.31ZM10.22,19.56c.34,0,.48-.36.4-.68-.05-.21-.44-.31-.75-.24-.08.11-.13.37-.12.52.01.13.33.4.47.4ZM11.46,18.61c-.27.1-.47.44-.41.63.07.21.42.39.63.32s.37-.41.32-.62c-.04-.16-.38-.38-.54-.32ZM14.87,20.32l-.55-.54-.55.54c-.12.12.04.52.25.59.37.12.75-.25.85-.59ZM8.83,19.94c-.33.03-.55.35-.5.59.04.17.33.32.54.33.25,0,.41-.18.4-.41s-.25-.53-.43-.51ZM10.02,20.9c.4.04.71-.22.62-.61-.04-.2-.26-.36-.53-.32-.25.04-.4.44-.38.63.01.08.18.29.28.3ZM11.41,19.97c-.21.02-.42.45-.33.59.07.24.33.38.59.3.28-.12.34-.42.28-.67-.04-.16-.25-.26-.54-.23ZM12.6,20c-.18.06-.24.5-.22.61.26.27.48.3.78.28.17-.15.21-.56.08-.78-.09-.15-.39-.19-.64-.11ZM8.77,21.29c-.31.08-.53.45-.42.63.1.16.38.39.54.35.2-.04.46-.37.43-.56-.03-.16-.38-.46-.54-.42ZM10.09,21.3c-.29.07-.52.45-.42.63.1.16.38.39.54.35.2-.05.46-.37.43-.56-.03-.16-.37-.46-.55-.42ZM11.31,22.26c.42.07.67-.09.71-.38.04-.25-.19-.64-.37-.58-.33.1-.51.18-.56.33-.08.22.03.6.22.63ZM12.9,22.29c.19.08.52-.4.49-.63-.02-.18-.4-.47-.56-.39-.21.12-.47.35-.49.5s.27.39.55.51ZM14.19,21.27c-.31.1-.55.49-.44.65.12.18.38.38.54.35.21-.05.52-.39.46-.57-.05-.16-.4-.48-.56-.43ZM12.61,23.57c.22.07.52.02.62-.11.12-.15.18-.47.1-.6-.09-.14-.39-.34-.51-.27-.2.11-.44.37-.44.52,0,.13.11.42.24.45ZM13.92,23.47c.22.29.62.19.8-.07.11-.17-.01-.55-.22-.74-.13-.12-.49.02-.69.17-.11.08,0,.46.12.63ZM8.6,22.73c-.24.09-.35.5-.22.63.15.16.4.26.56.21.21-.07.37-.44.32-.61-.06-.24-.31-.38-.66-.24ZM10.22,23.64c.31.01.5-.39.42-.66-.07-.24-.46-.33-.77-.26-.08.1-.14.37-.12.52.01.13.33.39.47.4ZM11.46,22.69c-.27.1-.47.44-.41.63.07.21.42.39.63.32s.37-.41.32-.62c-.04-.16-.38-.38-.54-.32ZM13.83,24.81c.28.28.73.15.88-.09.13-.2,0-.63-.32-.76s-.86.55-.56.85ZM9.23,24.34c-.05-.26-.43-.38-.65-.25-.15.09-.29.42-.22.59.07.16.42.27.61.25.1-.01.36-.12.34-.21l-.08-.38ZM9.92,24.92c.3.08.72-.04.74-.34.01-.26-.12-.58-.45-.58-.17,0-.45.3-.47.48-.01.13.05.41.18.44ZM11.46,24.01c-.28.11-.45.42-.38.6.1.27.38.43.61.34.2-.08.37-.43.31-.62-.04-.16-.39-.38-.54-.32ZM12.61,24.07c-.19.07-.25.5-.23.61.26.27.48.3.78.28.17-.14.2-.57.08-.77-.09-.15-.42-.19-.63-.11Z"/>
    <path class="cls-4" d="M28.28,15.24c.44.23.42.61.37,1.01-.07.57-.32.85-.9.95-.17.03-.56.1-.7.04s-.33-.32-.36-.42c.23-.25.35-.52.24-.67-.58-.73-.71.34-1.5-.13-.21-.44-.11-.69.32-.99l-.6-.64c-.3.27-.67.45-.97.33-.12-.05-.31-.36-.24-.46l.36-.48c.11-.23-.45-.82-.67-.67s-.45.34-.6.32-.42-.29-.45-.45.16-.36.36-.61c.01-.17-.29-.52-.53-.74l-.6.59c-.34-.09-.67-.5-.61-.83l.47-.48-.65-.65-.55.55c-.29-.06-.61-.38-.65-.66l.53-.6c-.32-.25-.57-.48-.52-.81.04-.24.66-.43.87-.27.11.08.22.42.16.53-.08.16-.2.28-.47.58l.63.65c.28-.3.63-.56.93-.46.13.04.3.33.26.46-.04.16-.22.38-.39.58-.1.17.38.77.61.68.28-.15.61-.37.84-.41.14-.03.38.39.31.51l-.35.61c-.13.23.37.75.6.59.22-.15.49-.31.69-.34.17-.03.44.25.45.47,0,.17-.11.35-.33.61-.13.16,0,.43.17.54.67.41.8-.74,1.34-.13l.25.28c.05.06-.14.27-.21.33-.22.18-.31.54-.11.81.12.16.46.27.65.12.18-.14.41-.32.55-.33.15-.02.39.29.43.45.04.15-.13.36-.31.56-.2.21.09.79.48.79l.63-.59-.55-.75.35-.37Z"/>
    <path class="cls-4" d="M4.24,16.5c.14.59-.86.83-1.55.71-.15-.03-.38-.33-.33-.48s.2-.43.13-.53l-.38-.56.7-.76c.14.34.35.64.59.74l.62-.62-.65-.67.77-.77c.22.26.43.5.61.67l.68-.63-.72-.61.82-.81.5.81-.51.54c0,.23.31.55.6.69l.62-.59-.61-.71.67-.69-.59-.56s-.26.13-.27.09l-.05-.31c0-.06.18,0,.3,0,.21-.01.51-.44.42-.66-.11-.29-.42-.47-.69-.4,0-.12-.02-.32.02-.3l.22.12.64-.56c.19.18.41.4.62.65l.81-.81-.52-.25c-.13-.06-.03-.48.07-.65.08-.13.47-.24.62-.16s.17.32.21.63l.92-.81.63.63-.71.64c-.3-.42-.52-.57-.76-.46-.32.15-.52.56-.32.77l.41.43-.65.65.65.66-.59.61.43,1.05c-.21.09-.5.18-.64.12s-.37-.35-.44-.49l.57-.63-.59-.64.58-.66-.56-.63-.69.55.61.74-.64.64.66.69c-.29.19-.67.56-.54.83.13.28.35.69.22.88-.33.24-.69.05-.97-.19-.21-.18-.75.38-.61.59.14.2.29.37.29.49,0,.14-.1.45-.18.54-.35.02-.66-.08-.99-.26-.24-.12-.49.42-.43.69ZM5.33,14.9l-.59-.64-.52.56c-.14.16.15.69.39.72.24,0,.63-.4.72-.64ZM4.01,16.31l-.68-.64c-.29.3-.45.49-.47.7-.02.18.37.5.54.44.16-.05.35-.22.6-.51Z"/>
    <path class="cls-4" d="M17.69,8.2c-.25-.21-.47-.44-.71-.74l.6-.62.71.72-.6.64Z"/>
    <path class="cls-4" d="M10.09,10.14c-.13.19-.34.47-.55.63-.27.2-.79-.4-.59-.63l.51-.6.63.61Z"/>
    <polygon class="cls-4" points="10.78 8.19 10.19 7.62 10.92 6.91 11.53 7.51 10.78 8.19"/>
    <path class="cls-4" d="M16.28,6.8c-.19-.15-.47-.44-.64-.63l.61-.66.67.68-.65.61Z"/>
    <path class="cls-4" d="M7.27,9c-.01.18-.3.49-.45.45-.17-.05-.43-.2-.51-.26-.13-.35-.04-.57.2-.77.38-.12.79.19.76.59Z"/>
    <path class="cls-4" d="M14.13,6.04c-.04.22-.33.58-.6.69-.17.07-.49-.35-.52-.57-.02-.18.2-.38.43-.47.18-.07.5.09.69.36Z"/>
    <path class="cls-4" d="M7.45,26.6c-.18.16-.5.36-.67.35-.19-.02-.43-.17-.69-.34l.62-.76.74.76Z"/>
    <path class="cls-4" d="M19.64,8.86l-.61.61c-.17-.07-.49-.29-.55-.45-.08-.2.16-.54.45-.77l.71.61Z"/>
    <circle class="cls-4" cx="12.18" cy="7.5" r=".51"/>
    <path class="cls-4" d="M11.46,8.9c-.25.22-.51.43-.72.58-.2-.18-.4-.4-.44-.56s.19-.43.39-.62c.24.08.5.3.76.59Z"/>
    <path class="cls-4" d="M15.5,4.84l-.57.59c-.25-.09-.57-.39-.53-.74.02-.2.41-.39.58-.34.18.06.47.35.52.49Z"/>
    <path class="cls-4" d="M6.22,7.76c-.12-.13.07-.49.21-.6.2-.15.73-.11.76.12.04.3-.06.59-.23.72-.14.11-.5.04-.74-.23Z"/>
    <rect class="cls-4" x="13.12" y="4.41" width=".93" height=".85" transform="translate(.57 11.02) rotate(-45)"/>
    <path class="cls-4" d="M15.39,6c.14.16-.13.59-.33.59-.36,0-.62-.11-.77-.56l.7-.5.4.48Z"/>
    <path class="cls-4" d="M19.41,7.23c.14.46-.12.8-.52.9l-.53-.51c.09-.14.28-.37.4-.48s.6-.07.65.09Z"/>
    <path class="cls-4" d="M18.04,6.42c-.17.19-.49.35-.61.27s-.32-.31-.34-.45c-.03-.16.22-.45.37-.48.27-.04.4-.08.51-.01.15.09.18.54.06.67Z"/>
    <path class="cls-4" d="M6,26.46c.01.12-.3.46-.47.48-.2.02-.49-.14-.75-.34.22-.31.41-.5.69-.7l.53.56Z"/>
    <path class="cls-4" d="M11.62,6.28c.11-.2.45-.54.65-.66.23.2.46.41.46.56s-.24.39-.38.5-.44-.05-.72-.4Z"/>
    <path class="cls-4" d="M6.76,5.67c.18-.05.48.27.51.45.03.19-.24.54-.43.55-.17.01-.46-.2-.57-.33-.14-.18.16-.57.48-.67Z"/>
    <path class="cls-4" d="M16.77,4.59l-.21.62c-.05.15-.44.18-.57.08-.14-.11-.28-.46-.21-.66.11-.35.76-.31.99-.04Z"/>
    <path class="cls-4" d="M11.27,10.49c-.17.08-.45.17-.59.14-.17-.04-.41-.36-.46-.5l.61-.6c.26.33.41.6.44.97Z"/>
    <path class="cls-4" d="M9.82,11.93c-.18.13-.77,0-.87-.21-.12-.24.23-.66.47-.75.26.08.63.59.41.96Z"/>
    <path class="cls-4" d="M5.61,24.29c-.31.1-.62-.03-.65-.39-.03-.3.2-.5.52-.56.18-.03.4.22.42.38.02.18-.12.51-.29.57Z"/>
    <path class="cls-4" d="M2.64,27.41c.17-.03.49.28.54.44.05.18-.24.53-.42.54-.16.01-.46-.2-.56-.33-.11-.15.21-.6.45-.65Z"/>
    <path class="cls-4" d="M5.27,24.76c.29-.09.53.09.63.37,0,.21-.11.42-.46.56-.1-.01-.37-.12-.46-.27-.12-.2-.02-.56.29-.65Z"/>
    <path class="cls-4" d="M14.32,3.61c.03-.29.57-.67.83-.6.23.26.25.72,0,.87-.18.1-.51.06-.82-.27Z"/>
    <path class="cls-4" d="M7.73,7.79c-.05-.29-.03-.63.13-.67.22-.05.61,0,.68.15.08.18,0,.58-.13.69-.15.12-.63,0-.68-.17Z"/>
    <path class="cls-4" d="M5.34,21.97c.15-.06.49.16.54.31.06.19-.11.55-.31.62-.17.06-.51-.14-.61-.34-.08-.16.11-.5.38-.6Z"/>
    <path class="cls-4" d="M7.02,5.25c-.1.07-.64.01-.66-.11l-.07-.52c-.02-.16.44-.29.58-.26.28.05.45.68.15.89Z"/>
    <path class="cls-4" d="M5.34,20.65c.15-.06.49.16.54.31.06.19-.1.54-.31.62-.17.06-.5-.14-.61-.34-.08-.16.11-.5.38-.6Z"/>
    <path class="cls-4" d="M5.71,20.14c-.16.05-.65.04-.68-.09s-.03-.34-.02-.54c0-.14.19-.15.53-.29.08.04.26.2.34.32s-.04.55-.17.59Z"/>
    <path class="cls-4" d="M21.54,18.8c-.09,0-.23-.03-.24-.07l-.03-.25c-.03-.24.15-.54.44-.57.23-.03.44.18.47.39.04.38-.26.53-.64.5Z"/>
    <path class="cls-4" d="M13.44,7.96c-.24-.13-.52-.33-.5-.45s.22-.38.35-.45c.28-.16.52.05.6.28.09.26-.27.73-.46.63Z"/>
    <path class="cls-4" d="M12.23,9.32l-.51-.18c-.11-.04-.15-.44-.05-.5l.57-.35c.09.03.27.33.32.48.04.14-.16.39-.34.55Z"/>
    <path class="cls-4" d="M22.24,15.78c.01.18-.38.43-.55.39-.21-.04-.47-.38-.54-.63.18-.36,1.05-.27,1.09.24Z"/>
    <path class="cls-4" d="M5.34,16.57c.15-.06.5.16.54.32.04.17-.16.51-.34.6-.16.07-.49-.12-.58-.32-.08-.17.13-.5.38-.59Z"/>
    <path class="cls-4" d="M22.12,20.06c-.16.13-.67.07-.83.01v-.7s.62-.01.62-.01c.22,0,.42.53.21.7Z"/>
    <path class="cls-4" d="M5.46,17.9c.16-.02.43.27.44.42.02.19-.26.47-.46.5-.18.03-.48-.22-.49-.4-.02-.21.25-.5.5-.52Z"/>
    <path class="cls-4" d="M21.66,16.57c.19-.07.5.17.52.37s-.11.45-.28.49c-.24.06-.53-.05-.6-.2-.12-.26.04-.56.36-.67Z"/>
    <path class="cls-4" d="M16.74,7.33c.13.28-.24.7-.52.66s-.43-.44-.32-.75c.07-.21.69-.23.84.09Z"/>
    <path class="cls-4" d="M8.64,26.66c-.19.39-.8.41-1.07.03.14-.32.42-.63.69-.69l.38.66Z"/>
    <path class="cls-4" d="M17.51,9.3l-.34-.38c-.08-.09.22-.37.33-.45s.44-.02.52.09.09.4.03.52c-.06.14-.43.34-.54.22Z"/>
    <path class="cls-4" d="M20.34,12.13l-.55-.54.54-.55c.19.11.44.34.54.58l-.53.51Z"/>
    <path class="cls-4" d="M8.61,6.16c0,.2-.26.47-.54.43-.25-.03-.35-.13-.38-.38-.05-.32.23-.58.48-.53l.44.47Z"/>
    <path class="cls-4" d="M8.61,14.32c0,.2-.26.47-.54.43-.25-.03-.35-.13-.38-.38-.05-.32.23-.58.48-.53l.44.47Z"/>
    <path class="cls-4" d="M20.83,15.57c.07.13-.2.52-.34.56s-.36-.05-.52-.16c-.12-.09-.15-.47-.02-.55.2-.13.76-.05.87.15Z"/>
    <polygon class="cls-4" points="20.34 20.29 19.8 19.74 20.34 19.2 20.9 19.75 20.34 20.29"/>
    <circle class="cls-4" cx="9.48" cy="26.53" r=".44"/>
    <path class="cls-4" d="M7.2,15.8c.01.16-.37.43-.49.36-.13-.08-.34-.29-.42-.42s.18-.48.32-.5c.19-.02.56.3.59.56Z"/>
    <path class="cls-4" d="M27.61,14.6l-.42.29c-.08.05-.31-.13-.36-.21l-.22-.35c-.06-.1.15-.42.26-.4.26.04.62.42.73.67Z"/>
    <path class="cls-4" d="M18.47,10.27l.62-.6c.16.14.33.37.35.54.01.15-.12.39-.26.42-.24.06-.42-.06-.71-.36Z"/>
    <path class="cls-4" d="M21.66,12.51c.13-.06.45.18.51.32.06.15-.17.44-.33.57-.13.1-.45-.18-.55-.33-.1-.14.18-.47.38-.56Z"/>
    <path class="cls-4" d="M9.91,12.97c-.05.18-.28.44-.4.46-.15.02-.41-.2-.48-.35-.07-.13.14-.38.34-.56.14-.13.6.27.55.45Z"/>
    <path class="cls-4" d="M22.83,16.6c.13-.06.53.13.54.27.02.2-.03.48-.19.53-.23.07-.46.05-.54-.07-.13-.2-.08-.6.19-.73Z"/>
    <path class="cls-4" d="M11.19,14.62c-.38.31-.7.07-.84-.3l.52-.51c.3.16.51.66.32.81Z"/>
    <path class="cls-4" d="M8.62,4.85c-.15.31-.6.55-.83.31s0-.67.31-.84l.52.52Z"/>
    <path class="cls-4" d="M11.18,26.83c-.07.09-.44.21-.52.13l-.36-.36.56-.55c.29.18.5.56.32.78Z"/>
    <path class="cls-4" d="M23.37,18.1l-.06.6c-.4.13-.5.1-.67-.02-.14-.31-.03-.62.17-.75l.56.17Z"/>
    <path class="cls-4" d="M22.95,20.23c-.12.04-.37-.17-.39-.3-.03-.15.11-.48.24-.57s.5.09.58.25-.23.55-.42.61Z"/>
    <path class="cls-4" d="M24.97,15.67c-.13.13-.41.37-.59.42-.13.03-.43-.33-.36-.43l.37-.55.57.57Z"/>
    <path class="cls-4" d="M18.47,26.6l.56-.57c.19.2.39.38.39.53s-.28.42-.44.42-.36-.2-.52-.39Z"/>
    <path class="cls-4" d="M18.12,26.6c-.1.17-.36.41-.51.39s-.43-.27-.43-.42.2-.34.4-.53l.54.56Z"/>
    <path class="cls-4" d="M19.42,15.57c.07.1-.17.46-.27.53-.12.08-.29-.03-.48-.17-.14-.1-.19-.39-.02-.53.14-.12.65,0,.77.17Z"/>
    <path class="cls-4" d="M26.12,13.27c-.12.25-.56.18-.7,0-.16-.19-.18-.61.16-.68.23-.05.64.47.54.67Z"/>
    <path class="cls-4" d="M22.11,26.65c.03.12-.31.4-.43.34s-.31-.22-.41-.34.13-.38.36-.58c.13.02.42.35.48.58Z"/>
    <path class="cls-4" d="M16.51,24.14c-.08.08-.22.24-.26.2l-.27-.26-.22-.21c-.06-.05.05-.17.17-.31.1-.11.46-.16.58-.06.16.13.13.5,0,.63Z"/>
    <path class="cls-4" d="M11.21,11.73c-.04.13-.34.45-.42.36l-.42-.45c-.09-.1.23-.35.4-.46.16-.03.5.37.44.56Z"/>
    <path class="cls-4" d="M24.83,11.79c-.21.43-.53.34-.76.08-.22-.24-.21-.55.15-.7l.61.62Z"/>
    <path class="cls-4" d="M22.54,26.61l.52-.45c.1-.09.46.19.43.31-.03.15-.19.43-.33.5s-.41-.1-.62-.36Z"/>
    <path class="cls-4" d="M13.36,8.55c.12-.07.5,0,.55.13.06.14-.05.45-.2.62-.11.12-.32-.03-.53-.23-.13-.12-.06-.38.18-.53Z"/>
    <path class="cls-4" d="M13.87,26.2c.06.18.06.6-.07.71s-.42.04-.59-.09c-.13-.1-.11-.5.03-.56l.62-.05Z"/>
    <path class="cls-4" d="M12.49,26.83c-.18.16-.65.11-.69-.05-.05-.21.08-.56.34-.67.23-.1.6.5.35.72Z"/>
    <path class="cls-4" d="M22.46,15.78l.58-.55c.14.03.43.38.34.49-.1.13-.29.32-.44.44-.11.09-.37-.23-.48-.38Z"/>
    <path class="cls-4" d="M23.2,14.7c-.11.1-.43-.06-.49-.18-.07-.14.09-.46.25-.61.12-.11.39.03.51.18.09.11-.05.42-.26.61Z"/>
    <path class="cls-4" d="M20.65,26.83c-.18.16-.65.11-.69-.06-.05-.2.08-.56.34-.67.23-.1.6.5.36.72Z"/>
    <path class="cls-4" d="M22.19,20.94c.08.07-.52.69-.63.55l-.19-.26-.09-.19c-.04-.08.45-.52.57-.41l.33.3Z"/>
    <path class="cls-4" d="M16.12,9.87c.11-.09.42.09.58.28-.02.15-.08.28-.34.53-.08-.02-.3-.12-.43-.2s-.05-.43.19-.61Z"/>
    <path class="cls-4" d="M14.95,8.05l-.56-.55.46-.4c.11-.09.36.26.44.4.07.12-.07.29-.34.56Z"/>
    <rect class="cls-4" x="11.87" y="13.93" width=".68" height=".76" transform="translate(-6.54 12.83) rotate(-45)"/>
    <rect class="cls-4" x="11.83" y="11.27" width=".76" height=".68" transform="translate(-4.63 12.03) rotate(-45)"/>
    <path class="cls-4" d="M23.54,10.5c-.27.31-.47.27-.75.1-.24-.14-.24-.43-.02-.82l.77.72Z"/>
    <path class="cls-4" d="M20.6,18.76c-.21.18-.69-.22-.69-.45l.42-.41c.31.16.58.61.27.86Z"/>
    <rect class="cls-4" x="14.53" y="8.57" width=".76" height=".68" transform="translate(-1.93 13.15) rotate(-45)"/>
    <path class="cls-4" d="M12.6,10.29c0,.12-.31.47-.4.39l-.41-.37c-.11-.1.13-.36.35-.55.12.01.44.36.46.54Z"/>
    <path class="cls-4" d="M26.28,16.94c-.08.15-.4.46-.58.46-.13,0-.43-.27-.35-.37l.34-.43c.09-.11.41.13.59.34Z"/>
    <path class="cls-4" d="M20.66,17.35c-.24.21-.55.1-.68-.1-.11-.17.03-.48.32-.62.22-.1.59.51.36.72Z"/>
    <path class="cls-4" d="M9.91,14.37c.03.15-.32.4-.47.38-.17-.02-.48-.32-.38-.46s.34-.4.45-.36c.13.05.38.3.4.44Z"/>
    <path class="cls-4" d="M18.97,17.51c-.18-.23-.32-.4-.37-.52-.07-.14.3-.49.43-.4s.4.38.37.51c-.03.15-.31.37-.43.41Z"/>
    <path class="cls-4" d="M16.09,11.23c.19-.05.44.02.52.13.09.13-.04.49-.17.61-.11.1-.47-.05-.54-.23-.06-.14.05-.47.2-.51Z"/>
    <path class="cls-4" d="M17.74,25.57c-.12.14-.44-.11-.55-.28-.08-.13.23-.45.42-.51.1-.04.31.11.37.2.08.1-.08.42-.24.6Z"/>
    <path class="cls-4" d="M13.49,14.72l-.45-.43c.14-.18.33-.36.47-.37.16-.01.4.27.43.42s-.33.5-.45.39Z"/>
    <path class="cls-4" d="M24.83,26.87h-.83s.16-.62.16-.62c.03-.13.54-.08.57.05l.1.57Z"/>
    <path class="cls-4" d="M19.03,25.69l-.57-.56.44-.36c.11-.09.4.24.47.36s-.08.29-.34.56Z"/>
    <path class="cls-4" d="M26.2,26.93c-.48-.03-.69-.05-.86-.11l.08-.5c.02-.11.46-.23.49-.13l.29.75Z"/>
    <path class="cls-4" d="M13.3,12.66c.17-.12.61-.03.62.11s-.07.42-.15.56c-.08.12-.38.05-.47-.06s-.11-.52,0-.61Z"/>
    <path class="cls-4" d="M18.01,10.29c.01.12-.32.48-.4.39l-.38-.4c-.1-.1.08-.32.32-.53.12.02.44.36.46.54Z"/>
    <path class="cls-4" d="M19.2,18.7c-.08.11-.38.13-.45.04-.09-.11-.17-.43-.09-.53.14-.19.44-.25.62-.11.15.11.12.34-.08.6Z"/>
    <path class="cls-4" d="M15.12,10.54c-.08.11-.38.13-.45.05-.1-.12-.17-.43-.09-.53.14-.18.44-.25.61-.11.15.11.12.34-.08.6Z"/>
    <path class="cls-4" d="M15.12,14.62c-.08.11-.38.13-.45.04-.1-.11-.17-.43-.09-.54.13-.18.44-.24.61-.11.15.11.12.34-.08.61Z"/>
    <path class="cls-4" d="M22.11,9.13c-.06.14-.41.29-.54.23s-.33-.28-.33-.41.19-.43.28-.45l.59.64Z"/>
    <path class="cls-4" d="M20.19,13.96c.12-.05.44.12.47.24.03.15-.08.54-.22.52s-.33-.07-.43-.15c-.16-.11-.07-.5.19-.62Z"/>
    <path class="cls-4" d="M16.09,19.38c.19-.05.51.04.53.18s-.09.49-.22.55-.42-.06-.49-.18c-.09-.13.03-.51.18-.55Z"/>
    <path class="cls-4" d="M19.48,11.7l-.46.3c-.11.07-.41-.21-.42-.34s.09-.28.29-.54l.59.58Z"/>
    <path class="cls-4" d="M15.34,12.86c-.06.23-.26.51-.39.48s-.36-.22-.42-.34.13-.37.29-.51l.53.37Z"/>
    <path class="cls-4" d="M21.76,25.65c-.11,0-.4-.22-.46-.34-.08-.14.24-.46.41-.54.11-.05.35.19.35.31s-.12.34-.29.57Z"/>
    <path class="cls-4" d="M16.62,26.8c-.06.19-.6.15-.72.04l.33-.8c.31.19.5.47.39.77Z"/>
    <path class="cls-4" d="M17.2,11.67c.05-.15.28-.47.43-.5.13-.03.43.29.36.39l-.31.43c-.09.12-.53-.18-.48-.32Z"/>
    <rect class="cls-4" x="11.84" y="12.62" width=".68" height=".68" transform="translate(-5.6 12.41) rotate(-45)"/>
    <rect class="cls-4" x="15.92" y="8.54" width=".68" height=".68" transform="translate(-1.52 14.1) rotate(-45)"/>
    <path class="cls-4" d="M20.59,7.89c-.07.21-.46.08-.63-.09-.13-.13-.14-.54.04-.58.31-.07.71.3.59.67Z"/>
    <path class="cls-4" d="M16.09,15.3c.19-.05.51.04.53.18s-.09.49-.22.55-.42-.06-.49-.18c-.09-.13.03-.51.18-.55Z"/>
    <path class="cls-4" d="M19.26,13.18c-.03.17-.52.18-.62.03s0-.55.16-.66c.08-.06.35.03.41.1.07.09.07.32.05.53Z"/>
    <rect class="cls-4" x="10.52" y="12.62" width=".68" height=".68" transform="translate(-5.98 11.48) rotate(-45)"/>
    <rect class="cls-4" x="15.92" y="24.86" width=".68" height=".68" transform="translate(-13.06 18.88) rotate(-45)"/>
    <rect class="cls-4" x="20" y="24.86" width=".68" height=".68" transform="translate(-11.86 21.76) rotate(-45)"/>
    <rect class="cls-4" x="15.92" y="22.1" width=".68" height=".68" transform="translate(-11.11 18.07) rotate(-45)"/>
    <path class="cls-4" d="M17.67,22.87c-.17-.03-.47-.34-.47-.51,0-.13.4-.39.48-.29l.31.43c.08.11-.19.4-.32.37Z"/>
    <path class="cls-4" d="M19.3,6.6c-.12.08-.44.02-.59-.07s-.19-.42-.09-.72c.31.01.69.39.69.8Z"/>
    <path class="cls-4" d="M23.31,25.49c-.1.13-.47.01-.59-.16-.1-.15.07-.55.26-.55.31,0,.59.37.32.71Z"/>
    <path class="cls-4" d="M15.15,11.93c-.1.13-.47.01-.59-.16-.1-.15.07-.55.26-.55.31,0,.59.37.32.71Z"/>
    <circle class="cls-4" cx="6.75" cy="27.93" r=".38"/>
    <rect class="cls-4" x="13.22" y="9.92" width=".68" height=".68" transform="translate(-3.28 12.59) rotate(-45)"/>
    <path class="cls-4" d="M18.22,15.57l-.52.48c-.09.09-.37-.18-.42-.3-.06-.14.17-.52.3-.46l.63.28Z"/>
    <path class="cls-4" d="M16.39,18.86l-.52-.39c-.1-.08.11-.36.22-.43s.48.05.51.19c.05.16-.12.53-.21.64Z"/>
    <circle class="cls-4" cx="16.26" cy="21.12" r=".37"/>
    <path class="cls-4" d="M18.87,19.35c.11-.07.45.17.45.3s-.14.38-.24.47c-.1.08-.37-.1-.45-.21s.05-.43.24-.56Z"/>
    <path class="cls-4" d="M17.96,13.13c0,.15-.36.24-.5.19-.16-.06-.23-.48-.12-.61s.53-.11.61-.01v.43Z"/>
    <path class="cls-4" d="M16.58,14.5c-.08.14-.16.28-.2.26l-.2-.12c-.13-.08-.35-.36-.28-.49s.42-.26.55-.19.21.41.14.54Z"/>
    <path class="cls-4" d="M15.32,26.85c-.28.14-.75.13-.79-.06-.06-.31.25-.54.53-.61l.26.67Z"/>
    <path class="cls-4" d="M21.98,14.51c-.07.12-.16.27-.19.25l-.21-.12c-.13-.07-.34-.35-.28-.49.07-.14.42-.26.55-.19s.21.41.13.55Z"/>
    <path class="cls-4" d="M20.16,23.48c.16-.09.51.12.52.29,0,.13-.11.41-.28.44-.13.02-.33-.09-.43-.24-.08-.11.02-.4.19-.5Z"/>
    <path class="cls-4" d="M18.86,23.44c.11-.07.46.17.46.3s-.13.37-.25.47c-.1.09-.37-.11-.45-.21s.06-.44.23-.56Z"/>
    <path class="cls-4" d="M17.55,23.43c.11-.07.45.17.46.3s-.13.37-.24.47c-.1.08-.37-.1-.45-.21s.05-.44.23-.55Z"/>
    <path class="cls-4" d="M13.47,11.19c.11-.07.45.17.45.3s-.14.38-.24.47-.37-.1-.45-.21.04-.43.24-.56Z"/>
    <path class="cls-4" d="M18.02,20.94c-.1.23-.22.46-.33.54-.12.09-.5-.17-.49-.32.01-.11.22-.38.33-.38.13,0,.42.09.48.17Z"/>
    <path class="cls-4" d="M16.08,16.72c.12-.09.55.06.55.18s-.1.34-.19.45c-.08.1-.37-.02-.51-.13-.11-.08-.03-.38.15-.51Z"/>
    <path class="cls-4" d="M19.29,22.27c.06.24-.11.56-.29.6-.11.02-.35-.17-.39-.27-.05-.12.11-.37.26-.47.11-.07.39,0,.43.13Z"/>
    <path class="cls-4" d="M16.08,12.64c.11-.08.54.06.54.19s-.1.34-.19.45c-.08.1-.37-.02-.51-.13-.11-.09-.04-.37.16-.52Z"/>
    <path class="cls-4" d="M19.12,20.75c.24-.05.21.78-.01.74-.11-.02-.34-.15-.41-.23l-.21-.21s.14-.21.19-.22l.43-.08Z"/>
    <path class="cls-4" d="M20.16,12.64c.11-.09.54.06.55.19s-.1.34-.19.45c-.08.1-.38-.02-.51-.13-.11-.09-.03-.37.15-.51Z"/>
    <path class="cls-4" d="M17.7,14.69c-.15.03-.47-.27-.51-.42-.04-.17.36-.42.52-.33.25.14.25.7-.01.75Z"/>
    <path class="cls-4" d="M20.32,20.64l.38.38c.1.1-.15.43-.28.47-.12.03-.36-.16-.43-.29s.09-.32.34-.57Z"/>
    <path class="cls-4" d="M11.91,27.68c.07-.12.59-.08.53.03.11.13.11.33-.02.47-.19.07-.31.08-.49.05-.13-.02-.11-.4-.02-.55Z"/>
    <path class="cls-4" d="M20.07,27.67c.07-.11.58-.07.52.04.11.13.11.33-.02.47-.18.07-.34.08-.49.05-.13-.03-.13-.38-.02-.56Z"/>
    <path class="cls-4" d="M24.15,27.68c.07-.12.6-.08.53.02.11.13.11.33-.02.47-.18.07-.33.08-.49.05-.12-.03-.11-.41-.02-.55Z"/>
    <path class="cls-4" d="M11.15,27.69c.04.12-.07.46-.17.51s-.29.08-.39.02-.19-.39-.13-.48c.09-.15.63-.21.69-.04Z"/>
    <path class="cls-4" d="M17.93,5.11c-.07.14-.48.16-.58.05-.14-.14-.19-.38-.06-.68.23,0,.61.32.64.62Z"/>
    <path class="cls-4" d="M15.99,27.67c.06-.11.59-.07.52.04.11.13.11.33-.02.47-.2.08-.3.08-.5.05-.13-.02-.11-.38,0-.56Z"/>
    <path class="cls-4" d="M18.8,13.97c.27.03.47.08.49.2.02.16-.05.45-.18.5-.14.06-.37,0-.44-.1-.09-.15,0-.48.13-.6Z"/>
    <circle class="cls-4" cx="23.04" cy="23.84" r=".36"/>
    <circle class="cls-4" cx="24.4" cy="25.2" r=".36"/>
    <path class="cls-4" d="M24.16,23.59c.07-.11.58-.06.52.04.11.13.11.33-.02.47-.18.07-.33.08-.49.05-.13-.03-.13-.36-.01-.56Z"/>
    <path class="cls-4" d="M4.16,28.32l-.49-.39c-.11-.09.14-.44.28-.43.15.01.41.16.4.28,0,.14-.12.48-.19.54Z"/>
    <path class="cls-4" d="M14.67,27.66c.09-.07.48-.1.55,0,.08.11-.02.39-.13.56-.08.11-.31.08-.47-.04-.11-.09-.06-.42.05-.51Z"/>
    <path class="cls-4" d="M21.81,22.87c-.14,0-.38-.16-.45-.27s.07-.52.19-.48c.15.05.4.23.48.33s-.09.43-.21.43Z"/>
    <path class="cls-4" d="M18.73,27.67c.07-.09.47-.07.54.02.08.11.01.37-.09.51-.07.09-.28.09-.41.03-.12-.06-.17-.39-.03-.56Z"/>
    <path class="cls-4" d="M22.95,22.87c-.13-.03-.36-.38-.25-.46l.55-.36c.05.12.11.34.13.49.02.13-.3.35-.43.33Z"/>
    <path class="cls-4" d="M24.28,16.68c.11-.02.4.07.43.18.04.13-.04.42-.15.53-.1.1-.4-.07-.5-.21-.08-.11.07-.31.22-.5Z"/>
    <path class="cls-4" d="M21.67,24.22l-.31-.31c-.08-.08.11-.37.24-.45s.4.16.44.3c.05.16-.25.58-.37.47Z"/>
    <path class="cls-4" d="M25.64,24.88c.17-.04.35.04.41.2s0,.35-.15.43c-.07.05-.38-.03-.48-.12s.01-.37.22-.51Z"/>
    <path class="cls-4" d="M5.17,27.63c.11-.06.46-.01.52.09.07.12.03.35-.08.5-.08.11-.36.05-.47-.07-.09-.1-.09-.46.03-.52Z"/>
    <path class="cls-4" d="M25.46,27.68c.03-.11.5-.12.56-.03.08.11.08.32.02.48-.04.11-.3.22-.39.15-.11-.09-.25-.43-.2-.6Z"/>
    <path class="cls-4" d="M17.94,17.31l-.55.03c-.1,0-.21-.25-.19-.34.05-.2.42-.33.61-.28.15.05.14.41.13.6Z"/>
    <path class="cls-4" d="M20.32,22.12c.12,0,.33.15.36.25.04.13-.18.48-.31.44s-.32-.19-.45-.32c-.1-.1.26-.38.4-.37Z"/>
    <path class="cls-4" d="M8.28,28.25c-.16.12-.6-.3-.56-.5.04-.14.47-.21.61-.14s.07.55-.05.64Z"/>
    <path class="cls-4" d="M9.52,7.99l-.53-.48.53-.5c.23.36.22.62,0,.98Z"/>
    <path class="cls-4" d="M24.67,20.02c-.04.13-.4.08-.49-.02s-.11-.55.03-.55h.46c.11-.01.06.4,0,.57Z"/>
    <path class="cls-4" d="M21.48,27.63c.1-.06.49-.02.52.09.03.13-.02.32-.1.5-.06.12-.36.05-.45-.07s-.08-.45.03-.52Z"/>
    <path class="cls-4" d="M22.81,27.66c.07-.09.47-.05.51.06.05.12.02.36-.07.49-.06.09-.3.08-.41.01s-.15-.4-.03-.56Z"/>
    <path class="cls-4" d="M16.54,3.74c-.07.12-.36.2-.45.15-.12-.06-.31-.39-.22-.5s.36-.17.46-.12.27.37.22.47Z"/>
    <path class="cls-4" d="M9.27,27.64c.07-.08.47-.02.49.08.02.13-.02.32-.09.5-.05.12-.36.06-.46-.06-.08-.1-.04-.4.06-.52Z"/>
    <path class="cls-4" d="M13.35,27.64c.07-.08.48-.03.49.08.02.13-.02.33-.09.5-.05.12-.36.06-.46-.06-.08-.1-.03-.41.06-.52Z"/>
    <path class="cls-4" d="M17.44,27.63c.07-.09.47-.02.49.09.02.13-.02.33-.09.5-.05.12-.36.06-.46-.06-.08-.1-.04-.39.06-.52Z"/>
    <path class="cls-4" d="M24.37,18.04c.17,0,.39.16.38.28-.02.14-.12.37-.23.41-.14.04-.42-.06-.43-.18,0-.17.14-.52.29-.51Z"/>
    <path class="cls-4" d="M23.18,21.48c-.22,0-.51-.4-.45-.57.07-.14.53-.16.62-.03s0,.6-.16.6Z"/>
    <path class="cls-4" d="M25.56,23.55c.1-.06.49-.02.51.08.04.13-.01.33-.09.5-.05.11-.34,0-.45-.08-.11-.08-.09-.44.03-.5Z"/>
    <path d="M14.87,20.32c-.1.34-.48.71-.85.59-.21-.07-.37-.47-.25-.59l.55-.54.55.54Z"/>
    <path d="M13.92,19.39c-.13-.17-.23-.55-.12-.63.21-.15.56-.29.7-.17.19.16.34.57.22.74-.17.24-.57.35-.8.06Z"/>
    <path d="M13.41,19.03c-.13.37-.35.53-.62.51-.18-.01-.4-.23-.41-.41-.01-.27.15-.45.45-.62.19-.1.65.31.57.51Z"/>
    <path d="M13.83,24.81c-.3-.3.24-.99.56-.85s.45.56.32.76c-.15.24-.6.37-.88.09Z"/>
    <path d="M13.92,23.47c-.13-.17-.23-.55-.12-.63.2-.15.56-.29.69-.17.21.19.34.57.22.74-.17.26-.57.35-.8.07Z"/>
    <path d="M12.61,23.57c-.13-.04-.24-.32-.24-.45,0-.15.24-.41.44-.52.12-.07.41.13.51.27.09.13.02.45-.1.6-.1.13-.4.17-.62.11Z"/>
    <path d="M12.87,17.2c.18-.05.54.24.54.41,0,.19-.24.58-.43.61-.17.02-.46-.23-.56-.37-.16-.21.11-.55.45-.64Z"/>
    <path d="M11.72,18.17c-.36.07-.65-.05-.68-.43-.02-.3.2-.45.57-.52.17-.03.39.22.41.38.02.18-.13.54-.31.57Z"/>
    <path d="M12.9,22.29c-.28-.12-.57-.36-.55-.51s.27-.39.49-.5c.16-.09.54.2.56.39.03.23-.3.71-.49.63Z"/>
    <path d="M12.6,15.92c.26-.11.57,0,.7.16s.04.57-.11.67c-.16.12-.62.03-.75-.15-.12-.16-.04-.6.16-.68Z"/>
    <path d="M14.19,21.27c.16-.05.51.27.56.43.06.18-.25.52-.46.57-.16.04-.42-.16-.54-.35-.11-.16.13-.55.44-.65Z"/>
    <path d="M11.31,22.26c-.19-.03-.31-.41-.22-.63.06-.15.23-.23.56-.33.18-.06.4.34.37.58-.04.29-.29.45-.71.38Z"/>
    <path d="M14.18,17.2c.17-.06.53.26.58.42.06.18-.26.52-.46.57-.16.04-.42-.16-.54-.35-.11-.16.16-.56.43-.64Z"/>
    <path d="M12.61,24.07c.22-.08.55-.03.63.11.12.2.09.64-.08.77-.3.03-.52,0-.78-.28-.02-.11.04-.54.23-.61Z"/>
    <path d="M12.6,20c.25-.08.55-.04.64.11.13.22.1.63-.08.78-.3.03-.52,0-.78-.28-.02-.11.04-.55.22-.61Z"/>
    <path d="M11.26,15.84l.7.14c.04.45,0,.56-.11.75-.3.08-.6.04-.7-.11-.16-.23-.1-.52.12-.79Z"/>
    <path d="M14.74,16.46c-.06.21-.39.38-.53.38-.22,0-.44-.22-.44-.45,0-.17.21-.51.4-.54.24-.04.65.36.57.61Z"/>
    <path d="M11.46,22.69c.16-.06.5.16.54.32.05.2-.13.55-.32.62s-.56-.11-.63-.32c-.06-.19.14-.53.41-.63Z"/>
    <path d="M11.46,18.61c.16-.06.5.17.54.32.05.21-.12.55-.32.62s-.56-.11-.63-.32c-.06-.19.14-.53.41-.63Z"/>
    <path d="M10.08,17.22c.18-.04.57.22.58.38.02.19-.26.54-.45.58-.16.04-.43-.18-.54-.35s.14-.57.41-.62Z"/>
    <path d="M10.02,20.9c-.1,0-.27-.22-.28-.3-.03-.2.13-.6.38-.63.27-.04.49.13.53.32.08.4-.23.65-.62.61Z"/>
    <path d="M8.77,21.29c.16-.04.51.25.54.42.03.18-.23.51-.43.56-.16.04-.44-.18-.54-.35-.1-.18.12-.55.42-.63Z"/>
    <path d="M10.09,21.3c.18-.04.52.25.55.42.03.18-.23.51-.43.56-.16.04-.44-.18-.54-.35-.11-.17.13-.55.42-.63Z"/>
    <path d="M9.92,24.92c-.13-.04-.19-.31-.18-.44.02-.17.29-.48.47-.48.33,0,.47.33.45.58-.01.29-.44.42-.74.34Z"/>
    <path d="M11.46,24.01c.15-.06.5.16.54.32.05.19-.11.54-.31.62-.23.09-.5-.08-.61-.34-.07-.17.1-.49.38-.6Z"/>
    <path d="M10.03,15.9c.36-.05.57.08.61.25.06.29-.09.61-.27.63-.27.02-.55,0-.6-.16-.08-.23.01-.69.27-.72Z"/>
    <path d="M10.22,23.64c-.15,0-.46-.27-.47-.4-.01-.15.04-.42.12-.52.31-.08.7.02.77.26.08.28-.11.68-.42.66Z"/>
    <path d="M8.84,15.86c.18-.03.43.29.43.51,0,.24-.15.4-.4.42s-.5-.13-.53-.34c-.05-.29.15-.54.5-.59Z"/>
    <path d="M11.41,19.97c.29-.03.49.07.54.23.07.25,0,.54-.28.67-.26.08-.52-.06-.59-.3-.09-.14.13-.57.33-.59Z"/>
    <path d="M10.22,19.56c-.14,0-.45-.27-.47-.4-.01-.15.04-.41.12-.52.31-.07.7.03.75.24.08.32-.06.68-.4.68Z"/>
    <path d="M9.24,19.21c-.06.15-.36.33-.51.31-.19-.03-.42-.32-.41-.51,0-.17.36-.44.55-.42.09,0,.33.12.39.17.08.07.04.28-.02.45Z"/>
    <path d="M9.23,24.34l.08.38c.02.09-.25.2-.34.21-.19.02-.54-.09-.61-.25-.07-.17.07-.51.22-.59.23-.13.6-.01.65.25Z"/>
    <path d="M8.83,19.94c.19-.02.42.28.43.51s-.15.42-.4.41c-.21,0-.51-.16-.54-.33-.05-.24.17-.56.5-.59Z"/>
    <path d="M8.6,22.73c.35-.14.6,0,.66.24.04.17-.11.54-.32.61-.15.05-.4-.06-.56-.21-.13-.13-.02-.54.22-.63Z"/>
    <path d="M8.55,17.32c.19-.09.52-.02.69.11,0,.27,0,.43-.24.76-.11.03-.42-.08-.6-.24-.14-.12-.08-.52.14-.63Z"/>
    <path d="M5.33,14.9c-.09.25-.48.64-.72.64-.24-.03-.53-.56-.39-.72l.52-.56.59.64Z"/>
    <path d="M4.01,16.31c-.26.29-.45.46-.6.51-.18.05-.56-.26-.54-.44.02-.21.18-.41.47-.7l.68.64Z"/>
  </g>
  <g class="cls-5">
    <path class="cls-1" d="M0,0h30.72v30.72H0V0ZM14.32,3.61c.32.33.65.38.82.27.26-.15.24-.62,0-.87-.26-.07-.8.32-.83.6ZM16.54,3.74c.06-.1-.12-.41-.22-.47s-.38,0-.46.12c-.08.11.1.44.22.5.1.05.38-.03.45-.15ZM13.62,4.2l-.66.66.6.6.66-.66-.6-.6ZM7.02,5.25c.3-.21.13-.85-.15-.89-.15-.02-.61.1-.58.26l.07.52c.02.12.55.18.66.11ZM8.62,4.85l-.52-.52c-.3.17-.54.62-.31.84.23.23.68,0,.83-.31ZM15.5,4.84c-.05-.14-.33-.43-.52-.49-.17-.05-.56.14-.58.34-.04.36.28.65.53.74l.57-.59ZM16.77,4.59c-.23-.27-.88-.31-.99.04-.07.21.07.56.21.66.13.1.52.07.57-.08l.21-.62ZM17.93,5.11c-.03-.3-.42-.63-.64-.62-.13.3-.08.54.06.68.11.11.52.09.58-.05ZM15.39,6l-.4-.48-.7.5c.15.45.41.57.77.56.2,0,.47-.43.33-.59ZM16.28,6.8l.65-.61-.67-.68-.61.66c.17.2.45.48.64.63ZM6.76,5.67c-.33.09-.62.48-.48.67.1.14.4.34.57.33.19-.01.46-.37.43-.55-.03-.17-.34-.5-.51-.45ZM8.61,6.16l-.44-.47c-.25-.05-.53.21-.48.53.04.25.14.34.38.38.27.04.54-.24.54-.43ZM11.62,6.28c.28.35.57.51.72.4.15-.11.38-.35.38-.5,0-.15-.23-.37-.46-.56-.2.12-.54.47-.65.66ZM14.13,6.04c-.19-.28-.51-.43-.69-.36-.24.09-.45.3-.43.47.03.22.35.64.52.57.27-.11.56-.47.6-.69ZM18.04,6.42c.11-.12.08-.58-.06-.67-.11-.07-.24-.03-.51.01-.16.02-.4.31-.37.48.02.14.23.37.34.45.12.08.43-.08.61-.27ZM19.3,6.6c0-.41-.37-.78-.69-.8-.1.3-.06.63.09.72.16.09.47.15.59.07ZM17.69,8.2l.6-.64-.71-.72-.6.62c.24.3.47.53.71.74ZM10.78,8.19l.75-.68-.61-.6-.72.71.58.57ZM12.69,7.5c0-.28-.23-.51-.51-.51s-.51.23-.51.51.23.51.51.51.51-.23.51-.51ZM13.44,7.96c.19.1.55-.37.46-.63-.08-.23-.32-.44-.6-.28-.13.08-.33.32-.35.45-.02.13.26.32.5.45ZM6.22,7.76c.25.27.6.34.74.23.16-.13.27-.41.23-.72-.03-.22-.56-.27-.76-.12-.14.1-.33.47-.21.6ZM7.73,7.79c.05.18.53.29.68.17.14-.11.21-.51.13-.69-.07-.16-.46-.2-.68-.15-.16.03-.18.38-.13.67ZM9.52,7.99c.22-.36.22-.62,0-.98l-.53.5.53.48ZM14.95,8.05c.27-.27.4-.44.34-.56-.08-.14-.33-.49-.44-.4l-.46.4.56.55ZM16.74,7.33c-.15-.31-.76-.3-.84-.09-.11.31.05.71.32.75.27.04.65-.38.52-.66ZM19.41,7.23c-.05-.16-.53-.2-.65-.09-.12.11-.3.34-.4.48l.53.51c.41-.1.66-.45.52-.9ZM20.59,7.89c.12-.37-.28-.73-.59-.67-.17.04-.16.45-.04.58.17.17.56.29.63.09ZM4.24,16.5c-.06-.27.19-.81.43-.69.33.17.64.27.99.26.08-.09.19-.4.18-.54,0-.12-.15-.3-.29-.49-.15-.21.4-.77.61-.59.28.24.64.43.97.19.13-.19-.08-.6-.22-.88-.13-.27.26-.63.54-.83l-.66-.69.64-.64-.61-.74.69-.55.56.63-.58.66.59.64-.57.63c.07.14.3.43.44.49.14.06.43-.03.64-.12l-.43-1.05.59-.61-.65-.66.65-.65-.41-.43c-.2-.21,0-.62.32-.77.25-.11.46.04.76.46l.71-.64-.63-.63-.92.81c-.03-.31-.06-.55-.21-.63-.16-.08-.54.03-.62.16-.1.16-.2.58-.07.65l.52.25-.81.81c-.22-.25-.43-.48-.62-.65l-.64.56-.22-.12s-.03.18-.02.3c.28-.06.58.12.69.4.09.23-.21.65-.42.66-.12,0-.31-.06-.3,0l.05.31.27-.09.59.56-.67.69.61.71-.62.59c-.29-.14-.59-.46-.6-.69l.51-.54-.5-.81-.82.81.72.61-.68.63c-.18-.17-.39-.42-.61-.67l-.77.77.65.67-.62.62c-.23-.1-.45-.4-.59-.74l-.7.76.38.56c.07.11-.08.38-.13.53-.05.15.18.46.33.48.7.12,1.69-.13,1.55-.71ZM11.46,8.9c-.26-.3-.53-.51-.76-.59-.21.2-.43.47-.39.62.03.15.24.38.44.56.21-.15.47-.37.72-.58ZM12.23,9.32c.18-.17.38-.42.34-.55-.05-.16-.23-.45-.32-.48l-.57.35c-.1.06-.07.46.05.5l.51.18ZM19.64,8.86l-.71-.61c-.28.23-.52.57-.45.77.07.17.38.38.55.45l.61-.61ZM7.27,9c.03-.39-.38-.71-.76-.59-.24.2-.33.42-.2.77.08.06.34.21.51.26.15.04.44-.27.45-.45ZM16.26,8.4l-.48.48.48.48.48-.48-.48-.48ZM17.51,9.3c.11.12.48-.07.54-.22.05-.13.04-.41-.03-.52-.08-.11-.41-.17-.52-.09-.11.09-.42.36-.33.45l.34.38ZM28.28,15.24l-.35.37.55.75-.63.59c-.39,0-.68-.58-.48-.79.19-.2.35-.41.31-.56-.04-.16-.27-.47-.43-.45-.14.02-.37.19-.55.33-.19.15-.53.04-.65-.12-.2-.27-.11-.63.11-.81l.21-.33-.25-.28c-.54-.61-.67.54-1.34.13-.18-.11-.3-.38-.17-.54.22-.26.33-.44.33-.61,0-.21-.28-.49-.45-.47-.2.03-.47.19-.69.34-.24.16-.74-.36-.6-.59l.35-.61c.07-.12-.17-.54-.31-.51-.23.04-.56.26-.84.41-.22.09-.71-.51-.61-.68.17-.2.35-.42.39-.58.04-.13-.13-.42-.26-.46-.3-.1-.65.17-.93.46l-.63-.65c.27-.3.39-.42.47-.58.06-.12-.05-.45-.16-.53-.21-.16-.82.03-.87.27-.06.32.19.56.52.81l-.53.6c.04.28.36.6.65.66l.55-.55.65.65-.47.48c-.06.33.28.74.61.83l.6-.59c.24.23.55.57.53.74-.2.25-.38.45-.36.61.02.15.29.43.45.45.16.02.37-.17.6-.32.23-.15.78.44.67.67l-.36.48c-.07.1.12.42.24.46.3.11.67-.07.97-.33l.6.64c-.43.3-.53.55-.32.99.8.46.92-.6,1.5.13.11.14,0,.42-.24.67.03.1.22.36.36.42.14.06.53,0,.7-.04.58-.1.83-.39.9-.95.05-.4.07-.78-.37-1.01ZM13.36,8.55c-.24.14-.31.41-.18.53.22.2.43.34.53.23.15-.16.26-.47.2-.62-.05-.12-.44-.2-.55-.13ZM14.94,8.4l-.54.54.48.48.54-.54-.48-.48ZM22.11,9.13l-.59-.64c-.09.02-.29.31-.28.45,0,.14.21.35.33.41.13.06.47-.09.54-.23ZM10.09,10.14l-.63-.61-.51.6c-.19.23.33.83.59.63.21-.16.42-.44.55-.63ZM11.27,10.49c-.03-.37-.18-.64-.44-.97l-.61.6c.05.15.29.47.46.51.15.03.42-.06.59-.14ZM12.6,10.29c-.01-.18-.33-.52-.46-.54-.22.19-.46.46-.35.55l.41.37c.09.08.4-.26.4-.39ZM18.01,10.29c-.02-.18-.33-.52-.46-.54-.24.21-.42.43-.32.53l.38.4c.08.09.42-.27.4-.39ZM18.47,10.27c.29.3.47.42.71.36.14-.03.27-.27.26-.42-.01-.17-.19-.4-.35-.54l-.62.6ZM13.56,9.78l-.48.48.48.48.48-.48-.48-.48ZM15.12,10.54c.19-.26.22-.49.08-.6-.17-.13-.48-.07-.61.11-.08.11,0,.42.09.53.07.08.37.07.45-.05ZM16.12,9.87c-.24.18-.32.53-.19.61.13.08.36.18.43.2.25-.25.32-.38.34-.53-.16-.19-.47-.36-.58-.28ZM23.54,10.5l-.77-.72c-.22.39-.22.67.02.82.28.17.48.21.75-.1ZM9.82,11.93c.23-.37-.15-.88-.41-.96-.24.09-.59.51-.47.75.1.2.69.34.87.21ZM20.34,12.13l.53-.51c-.09-.24-.35-.47-.54-.58l-.54.55.55.54ZM11.21,11.73c.06-.18-.28-.59-.44-.56-.17.11-.49.36-.4.46l.42.45c.08.09.37-.23.42-.36ZM12.24,11.1l-.54.54.48.48.54-.54-.48-.48ZM13.47,11.19c-.2.13-.32.45-.24.56.08.11.34.29.45.21.11-.09.25-.33.24-.47,0-.13-.34-.37-.45-.3ZM15.15,11.93c.27-.34-.01-.72-.32-.71-.19,0-.37.4-.26.55.12.17.49.29.59.16ZM16.09,11.23c-.15.04-.26.37-.2.51.07.18.43.33.54.23.13-.12.26-.48.17-.61-.08-.11-.33-.17-.52-.13ZM17.2,11.67c-.04.14.39.44.48.32l.31-.43c.07-.1-.23-.42-.36-.39-.15.03-.38.35-.43.5ZM19.48,11.7l-.59-.58c-.2.25-.3.4-.29.54.01.13.31.42.42.34l.46-.3ZM24.83,11.79l-.61-.62c-.37.14-.37.46-.15.7.23.26.55.35.76-.08ZM9.91,12.97c.05-.18-.41-.57-.55-.45-.2.18-.4.43-.34.56.07.14.33.37.48.35.13-.02.35-.28.4-.46ZM10.86,12.48l-.48.48.48.48.48-.48-.48-.48ZM12.18,12.48l-.48.48.48.48.48-.48-.48-.48ZM15.34,12.86l-.53-.37c-.16.14-.34.39-.29.51.06.12.29.31.42.34.13.03.33-.25.39-.48ZM19.26,13.18c.03-.2.03-.44-.05-.53l-.41-.1c-.15.11-.25.52-.16.66.09.14.59.14.62-.03ZM21.66,12.51c-.19.09-.47.42-.38.56.1.15.42.43.55.33.16-.13.4-.41.33-.57-.06-.14-.38-.38-.51-.32ZM13.3,12.66c-.12.09-.1.49,0,.61.09.12.4.19.47.06.09-.14.17-.42.15-.56-.01-.14-.45-.24-.62-.11ZM16.08,12.64c-.2.15-.27.43-.16.52.13.1.42.22.51.13.09-.11.2-.32.19-.45,0-.13-.43-.28-.54-.19ZM17.96,13.13v-.43c-.1-.1-.52-.12-.62.01-.11.13-.03.54.12.61.14.06.5-.04.5-.19ZM20.16,12.64c-.18.14-.26.43-.15.51.13.1.42.22.51.13.09-.11.2-.32.19-.45,0-.13-.43-.28-.55-.19ZM26.12,13.27c.1-.21-.3-.72-.54-.67-.34.07-.32.48-.16.68.14.17.58.25.7,0ZM8.61,14.32l-.44-.47c-.25-.05-.53.21-.48.53.04.25.14.34.38.38.27.04.54-.24.54-.43ZM11.19,14.62c.19-.15-.02-.65-.32-.81l-.52.51c.14.37.46.6.84.3ZM23.2,14.7c.21-.19.35-.5.26-.61-.11-.15-.39-.29-.51-.18-.16.15-.31.47-.25.61.06.12.38.28.49.18ZM9.91,14.37c-.02-.14-.27-.38-.4-.44-.11-.05-.35.22-.45.36-.09.14.21.44.38.46.15.02.49-.24.47-.38ZM12.18,13.8l-.48.48.54.54.48-.48-.54-.54ZM13.49,14.72c.11.11.47-.24.45-.39-.03-.15-.27-.43-.43-.42-.13.01-.32.2-.47.37l.45.43ZM15.12,14.62c.2-.27.23-.49.08-.61-.17-.13-.49-.06-.61.11-.08.11,0,.42.09.54.07.08.36.07.45-.04ZM16.58,14.5c.08-.13,0-.47-.14-.54-.13-.07-.48.06-.55.19-.06.13.15.41.28.49l.2.12s.11-.12.2-.26ZM17.7,14.69c.26-.05.26-.61.01-.75-.16-.09-.56.16-.52.33.03.15.36.45.51.42ZM18.8,13.97c-.13.12-.22.46-.13.6.07.1.3.15.44.1.13-.05.2-.34.18-.5-.02-.12-.22-.17-.49-.2ZM20.19,13.96c-.26.12-.34.52-.19.62.11.07.29.13.43.15.15.01.25-.38.22-.52-.03-.12-.35-.3-.47-.24ZM21.98,14.51c.08-.14,0-.48-.13-.55-.13-.07-.48.05-.55.19-.06.13.15.41.28.49l.21.12s.12-.13.19-.25ZM27.61,14.6c-.11-.24-.47-.63-.73-.67-.12-.02-.33.3-.26.4l.22.35.36.21.42-.29ZM6.94,24.68c-.22-.16-.69.21-.69.5,0,.22.31.68.5.58l.52-.29c.25-.14.74.68.92.46l.26-.32c.08-.1.33-.29.43-.23.41.24.52.71.63.56l.2-.27c.08-.1.29-.28.42-.3.27-.04.67.81.82.57l.26-.41.55-.18.33.55c.16.27.66-.74.92-.56.35.24.49.75.6.59l.19-.26c.09-.12.41-.44.52-.33l.44.43c.18.17.6-.23.62-.53.02-.23-.18-.53-.38-.76.14-.17.4-.47.4-.65,0-.18-.26-.49-.39-.65l.38-.58c.09-.13-.15-.48-.29-.63-.27-.3.51-.77.26-1.09l-.36-.47c.14-.19.39-.48.39-.66,0-.18-.24-.47-.43-.68.33-.23.55-.65.31-.96-.1-.14-.21-.29-.24-.39-.05-.21.45-.51.35-.72-.18-.4-.54-.51-.3-.8.13-.16.32-.46.21-.55l-.43-.38c-.42.38-.87.28-1.3-.03-.46.32-.99.38-1.37-.09-.79.85-1.2-.27-1.98.4-.45-.38-.98-.29-1.47-.02-.29-.14-.73-.34-1.02-.16l.06.98c0,.13-.07.44-.18.48-.34.11-.52-.38-1.05-.15-.09.04-.12.13-.21.32l.13.51c.08.3.65-.28,1.12-.31.22.24.27.82,0,1-.15.1-.56-.1-.67-.23-.24-.05-.51,0-.57.15-.08.21-.08.55.05.65.13.1.51.23.62.1.12-.15.47-.34.57-.24.09.08.17.31.21.49.03.14-.17.51-.31.49-.12-.01-.3-.12-.49-.28-.13-.11-.43-.04-.6.14-.13.14-.13.45,0,.59.11.12.45.26.56.16.2-.2.49-.44.76-.14.12.13.14.4.03.64l-.38.21-.36-.27c-.27-.21-.64.06-.74.42-.07.27.17.68.55.51.19-.08.53-.35.76-.25.24.11.24.83,0,.93-.23.1-.57-.14-.78-.26-.31-.17-.6.32-.54.62.05.24.48.53.67.38.21-.17.41-.3.56-.32.14-.02.31.34.3.5,0,.17-.16.52-.3.51-.14-.01-.39-.18-.55-.31-.13-.11-.5.08-.6.24-.08.13-.03.41.06.54.12.17.42.26.54.16.19-.16.41-.3.55-.32s.31.34.31.52c0,.14-.21.45-.34.47s-.32-.13-.53-.28ZM24.97,15.67l-.57-.57-.37.55c-.07.11.23.47.36.43.18-.05.46-.29.59-.42ZM7.2,15.8c-.02-.26-.39-.59-.59-.56-.15.02-.4.37-.32.5.08.13.29.34.42.42.12.08.51-.2.49-.36ZM16.09,15.3c-.15.04-.27.42-.18.55.08.12.37.24.49.18.12-.06.25-.42.22-.55s-.34-.23-.53-.18ZM18.22,15.57l-.63-.28c-.14-.06-.36.32-.3.46.05.12.33.38.42.3l.52-.48ZM22.46,15.78c.11.15.36.47.48.38.15-.12.34-.31.44-.44.09-.11-.2-.47-.34-.49l-.58.55ZM19.42,15.57c-.12-.18-.64-.29-.77-.17-.17.14-.12.44.02.53.19.14.36.25.48.17.1-.07.34-.43.27-.53ZM20.83,15.57c-.11-.2-.67-.28-.87-.15-.13.09-.1.47.02.55.15.11.38.2.52.16.14-.04.4-.44.34-.56ZM22.24,15.78c-.04-.51-.91-.6-1.09-.24.06.25.33.59.54.63.17.04.56-.22.55-.39ZM5.34,16.57c-.25.1-.46.42-.38.59.09.2.42.39.58.32.19-.09.38-.43.34-.6-.03-.15-.39-.37-.54-.32ZM18.97,17.51c.11-.04.4-.26.43-.41.03-.13-.24-.42-.37-.51-.13-.09-.5.26-.43.4.06.12.19.29.37.52ZM20.66,17.35c.23-.2-.14-.82-.36-.72-.29.13-.43.45-.32.62.13.2.44.31.68.1ZM21.66,16.57c-.31.11-.48.41-.36.67.07.15.36.26.6.2.16-.04.29-.28.28-.49-.01-.21-.33-.44-.52-.37ZM22.83,16.6c-.27.13-.33.53-.19.73.08.12.32.14.54.07.16-.05.21-.33.19-.53-.02-.15-.41-.34-.54-.27ZM26.28,16.94c-.18-.21-.5-.45-.59-.34l-.34.43c-.07.1.22.37.35.37.17,0,.5-.31.58-.46ZM16.08,16.72c-.18.13-.26.43-.15.51.13.1.42.22.51.13.1-.11.2-.32.19-.45,0-.13-.43-.28-.55-.18ZM17.94,17.31c.01-.19.02-.55-.13-.6-.18-.05-.56.08-.61.28-.02.09.09.35.19.34l.55-.03ZM24.28,16.68c-.15.19-.3.39-.22.5.1.14.4.31.5.21.11-.11.19-.4.15-.53-.04-.11-.33-.2-.43-.18ZM5.46,17.9c-.25.02-.52.31-.5.52.01.18.31.43.49.4.2-.03.48-.31.46-.5-.01-.15-.28-.43-.44-.42ZM20.6,18.76c.31-.25.04-.7-.27-.86l-.42.41c0,.23.48.63.69.45ZM21.54,18.8c.37.03.68-.12.64-.5-.02-.21-.24-.42-.47-.39-.29.03-.47.33-.44.57l.03.25.24.07ZM23.37,18.1l-.56-.17c-.21.13-.32.44-.17.75.17.12.27.15.67.02l.06-.6ZM16.39,18.86c.1-.11.26-.48.21-.64-.04-.14-.41-.26-.51-.19-.11.08-.32.35-.22.43l.52.39ZM19.2,18.7c.2-.26.22-.49.08-.6-.18-.13-.48-.08-.62.11-.08.11,0,.42.09.53.07.09.36.07.45-.04ZM24.37,18.04c-.14,0-.29.34-.29.51,0,.12.29.22.43.18.11-.04.21-.27.23-.41.02-.12-.21-.27-.38-.28ZM5.71,20.14c.13-.04.24-.48.17-.59-.07-.11-.25-.27-.34-.32-.34.14-.52.15-.53.29-.01.2,0,.41.02.54.02.12.51.13.68.09ZM20.34,20.29l.56-.54-.57-.55-.54.54.54.55ZM16.09,19.38c-.15.04-.27.42-.18.55.08.12.37.24.49.18s.25-.42.22-.55c-.03-.14-.34-.23-.53-.18ZM18.87,19.35c-.19.12-.32.45-.24.56.08.11.34.29.45.21.11-.09.25-.33.24-.47,0-.13-.35-.37-.45-.3ZM22.12,20.06c.21-.17,0-.71-.21-.7h-.62s0,.72,0,.72c.16.05.67.11.83-.01ZM22.95,20.23c.19-.07.5-.45.42-.61-.08-.16-.45-.34-.58-.25-.13.09-.26.42-.24.57.02.13.27.34.39.3ZM24.67,20.02c.05-.16.1-.58,0-.58h-.46c-.14.01-.12.46-.03.56.09.1.45.14.49.02ZM5.34,20.65c-.27.1-.47.44-.38.6.1.2.43.4.61.34.21-.08.37-.43.31-.62-.05-.15-.39-.37-.54-.31ZM20.32,20.64c-.25.25-.41.44-.34.57.07.12.31.32.43.29.14-.04.38-.37.28-.47l-.38-.38ZM22.19,20.94l-.33-.3c-.12-.11-.61.33-.57.41l.09.19.19.26c.11.15.7-.48.63-.55ZM16.63,21.12c0-.2-.17-.37-.37-.37s-.37.17-.37.37.17.37.37.37.37-.17.37-.37ZM18.02,20.94c-.06-.08-.35-.17-.48-.17-.11,0-.32.27-.33.38-.02.15.37.41.49.32.1-.08.23-.31.33-.54ZM19.12,20.75l-.43.08-.19.22.21.21c.07.07.3.2.41.23.22.04.25-.79.01-.74ZM23.18,21.48c.16,0,.25-.47.16-.6-.08-.13-.54-.11-.62.03-.06.17.23.57.45.57ZM5.34,21.97c-.27.1-.46.44-.38.6.1.2.44.4.61.34.21-.08.37-.44.31-.62-.05-.15-.39-.37-.54-.31ZM16.26,21.96l-.48.48.48.48.48-.48-.48-.48ZM17.67,22.87c.13.02.4-.27.32-.37l-.31-.43c-.07-.1-.47.16-.48.29,0,.17.29.48.47.51ZM19.29,22.27c-.03-.13-.32-.2-.43-.13-.15.09-.31.34-.26.47.04.1.29.3.39.27.18-.04.35-.36.29-.6ZM20.32,22.12c-.13,0-.49.28-.4.37.13.12.32.27.45.32.13.04.34-.31.31-.44-.03-.11-.24-.25-.36-.25ZM21.81,22.87c.13,0,.29-.32.21-.43-.07-.1-.33-.28-.48-.33-.12-.04-.26.37-.19.48.07.12.31.27.45.27ZM22.95,22.87c.13.03.45-.2.43-.33-.02-.14-.08-.37-.13-.49l-.55.36c-.11.07.12.43.25.46ZM5.61,24.29c.17-.05.31-.38.29-.57-.01-.16-.24-.41-.42-.38-.32.06-.55.26-.52.56.03.36.34.49.65.39ZM16.51,24.14c.13-.13.16-.5,0-.63-.12-.1-.48-.05-.58.06-.12.14-.23.25-.17.31l.22.21.27.26.26-.2ZM17.55,23.43c-.18.12-.31.45-.23.55.08.11.34.3.45.21.11-.09.25-.33.24-.47,0-.13-.34-.37-.46-.3ZM18.86,23.44c-.18.11-.31.45-.23.56.08.11.34.3.45.21.11-.1.25-.33.25-.47,0-.13-.35-.37-.46-.3ZM20.16,23.48c-.16.1-.27.39-.19.5.1.14.3.26.43.24.16-.03.28-.31.28-.44,0-.17-.36-.39-.52-.29ZM21.67,24.22c.12.12.42-.31.37-.47-.05-.14-.32-.38-.44-.3-.12.09-.32.37-.24.45l.31.31ZM23.4,23.84c0-.2-.16-.36-.36-.36s-.36.16-.36.36.16.36.36.36.36-.16.36-.36ZM24.16,23.59c-.12.19-.11.53.01.56.16.04.31.03.49-.05.12-.14.13-.34.02-.47.06-.1-.45-.15-.52-.04ZM25.56,23.55c-.12.07-.13.42-.03.5.12.09.4.19.45.08.08-.17.12-.37.09-.5-.03-.11-.41-.14-.51-.08ZM5.27,24.76c-.31.1-.41.46-.29.65.09.15.36.26.46.27.35-.14.45-.35.46-.56-.1-.28-.34-.46-.63-.37ZM17.74,25.57c.16-.18.32-.5.24-.6-.06-.08-.27-.24-.37-.2-.18.07-.5.38-.42.51.1.17.42.42.55.28ZM19.03,25.69c.26-.27.4-.43.34-.56-.07-.12-.36-.45-.47-.36l-.44.36.57.56ZM21.76,25.65c.17-.23.3-.45.29-.57,0-.12-.24-.36-.35-.31-.17.08-.48.4-.41.54.07.12.36.34.46.34ZM23.31,25.49c.27-.34,0-.72-.32-.71-.19,0-.37.4-.26.55.12.17.49.29.59.16ZM16.26,24.72l-.48.48.48.48.48-.48-.48-.48ZM20.34,24.72l-.48.48.48.48.48-.48-.48-.48ZM24.75,25.2c0-.2-.16-.36-.36-.36s-.36.16-.36.36.16.36.36.36.36-.16.36-.36ZM25.64,24.88c-.21.14-.33.42-.22.51.11.09.41.17.48.12.15-.09.22-.27.15-.43s-.24-.25-.41-.2ZM6,26.46l-.53-.56c-.28.2-.47.39-.69.7.27.2.55.36.75.34.17-.02.48-.36.47-.48ZM7.45,26.6l-.74-.76-.62.76c.26.17.51.33.69.34.17.01.48-.19.67-.35ZM8.64,26.66l-.38-.66c-.27.06-.55.37-.69.69.27.37.88.36,1.07-.03ZM9.92,26.53c0-.24-.2-.44-.44-.44s-.44.2-.44.44.2.44.44.44.44-.2.44-.44ZM11.18,26.83c.18-.23-.03-.6-.32-.78l-.56.55.36.36.52-.13ZM12.49,26.83c.25-.22-.13-.82-.35-.72-.26.11-.39.46-.34.67.04.17.51.22.69.05ZM16.62,26.8c.1-.3-.08-.57-.39-.77l-.33.8c.12.12.66.15.72-.04ZM18.12,26.6l-.54-.56c-.19.2-.4.38-.4.53,0,.15.28.41.43.42s.41-.23.51-.39ZM18.47,26.6c.15.19.37.39.52.39.15,0,.44-.27.44-.42,0-.15-.2-.33-.39-.53l-.56.57ZM20.65,26.83c.25-.22-.12-.82-.36-.72-.26.1-.39.47-.34.67.05.17.51.22.69.06ZM22.11,26.65c-.06-.23-.36-.57-.48-.58-.23.2-.45.46-.36.58.1.12.29.28.41.34.12.06.46-.21.43-.34ZM13.87,26.2l-.62.05c-.15.06-.16.46-.03.56.17.13.47.19.59.09.13-.11.13-.52.07-.71ZM15.32,26.85l-.26-.67c-.28.07-.59.29-.53.61.04.19.5.21.79.06ZM22.54,26.61c.21.26.49.44.62.36.13-.07.3-.35.33-.5.02-.13-.33-.4-.43-.31l-.52.45ZM24.83,26.87l-.1-.57c-.02-.13-.53-.18-.57-.05l-.16.61h.83ZM26.2,26.93l-.29-.75c-.04-.1-.48.03-.49.13l-.08.5c.16.06.38.08.86.11ZM2.64,27.41c-.24.04-.55.49-.45.65.09.13.4.34.56.33.18-.01.48-.36.42-.54-.05-.16-.36-.47-.54-.44ZM4.16,28.32c.07-.06.19-.4.19-.54,0-.12-.25-.27-.4-.28-.15-.01-.4.34-.28.43l.49.39ZM5.17,27.63c-.12.06-.12.42-.03.52.1.12.38.17.47.07.11-.15.15-.38.08-.5-.05-.1-.4-.15-.52-.09ZM7.13,27.93c0-.21-.17-.38-.38-.38s-.38.17-.38.38.17.38.38.38.38-.17.38-.38ZM8.28,28.25c.13-.09.19-.58.05-.64s-.57,0-.61.14c-.05.2.4.62.56.5ZM9.27,27.64c-.1.12-.14.42-.06.52.1.12.41.18.46.06.07-.17.12-.37.09-.5-.02-.11-.42-.17-.49-.08ZM11.15,27.69c-.06-.17-.59-.11-.69.04-.06.1.04.42.13.48.09.06.28.03.39-.02.1-.05.21-.39.17-.51ZM11.91,27.68c-.09.14-.11.53.02.55.18.03.3.02.49-.05.12-.14.13-.34.02-.47.07-.11-.45-.14-.53-.03ZM13.35,27.64c-.09.11-.14.42-.06.52.1.12.41.18.46.06.07-.17.11-.37.09-.5-.02-.11-.42-.17-.49-.08ZM14.67,27.66c-.11.09-.16.42-.05.51.15.12.39.16.47.04.11-.17.22-.45.13-.56-.07-.09-.46-.07-.55,0ZM15.99,27.67c-.1.18-.12.54,0,.56.2.03.29.03.5-.05.12-.14.13-.34.02-.47.07-.11-.46-.14-.52-.04ZM17.44,27.63c-.1.13-.14.42-.06.52.1.13.41.18.46.06.07-.17.11-.37.09-.5-.02-.11-.42-.18-.49-.09ZM18.73,27.67c-.14.17-.09.5.03.56.13.06.34.06.41-.03.1-.14.17-.4.09-.51-.06-.09-.47-.11-.54-.03ZM20.07,27.67c-.11.18-.11.53.02.56.15.03.31.02.49-.05.12-.14.13-.34.02-.47.06-.11-.46-.14-.52-.04ZM21.48,27.63c-.11.07-.12.4-.03.52.09.12.4.19.45.07.08-.18.13-.37.1-.5-.02-.11-.42-.15-.52-.09ZM22.81,27.66c-.13.16-.09.5.03.56.11.07.35.08.41-.01.09-.14.12-.37.07-.49-.04-.1-.44-.15-.51-.06ZM24.15,27.68c-.08.14-.1.52.02.55.16.03.31.02.49-.05.12-.14.13-.34.02-.47.07-.11-.46-.14-.53-.02ZM25.46,27.68c-.05.17.09.51.2.6.09.07.34-.04.39-.15.06-.16.06-.37-.02-.48-.07-.09-.53-.08-.56.03Z"/>
    <path class="cls-1" d="M6.94,24.68c.2.16.39.3.53.28s.34-.33.34-.47c0-.17-.17-.53-.31-.52s-.36.16-.55.32c-.12.1-.42,0-.54-.16-.09-.12-.14-.41-.06-.54.1-.17.47-.35.6-.24.16.13.41.3.55.31.14.01.3-.33.3-.51,0-.16-.16-.52-.3-.5-.15.02-.35.15-.56.32-.19.16-.61-.13-.67-.38-.06-.3.22-.79.54-.62.22.12.55.36.78.26.24-.1.24-.83,0-.93-.24-.1-.58.16-.76.25-.38.17-.62-.24-.55-.51.09-.36.46-.63.74-.42l.36.27.38-.21c.12-.24.09-.51-.03-.64-.26-.3-.56-.05-.76.14-.11.1-.45-.04-.56-.16-.13-.14-.14-.45,0-.59.17-.18.47-.25.6-.14.19.16.37.27.49.28.14.02.34-.35.31-.49-.03-.18-.12-.41-.21-.49-.11-.1-.45.09-.57.24-.1.13-.48,0-.62-.1-.14-.1-.13-.45-.05-.65.06-.15.33-.21.57-.15.11.13.52.33.67.23.27-.18.22-.76,0-1-.46.03-1.04.61-1.12.31l-.13-.51c.09-.19.12-.28.21-.32.53-.23.71.26,1.05.15.11-.04.19-.35.18-.48l-.06-.98c.29-.17.72.02,1.02.16.5-.27,1.02-.36,1.47.02.78-.68,1.19.45,1.98-.4.37.48.9.42,1.37.09.43.32.88.41,1.3.03l.43.38c.11.1-.08.39-.21.55-.23.29.12.4.3.8.1.21-.39.51-.35.72.02.1.13.26.24.39.24.32.02.73-.31.96.19.21.43.49.43.68,0,.18-.25.48-.39.66l.36.47c.24.32-.53.8-.26,1.09.14.15.38.49.29.63l-.38.58c.12.16.39.47.39.65,0,.18-.25.48-.4.65.2.23.4.54.38.76-.03.3-.44.7-.62.53l-.44-.43c-.11-.1-.43.21-.52.33l-.19.26c-.11.16-.25-.35-.6-.59-.25-.17-.75.83-.92.56l-.33-.55-.55.18-.26.41c-.15.24-.55-.61-.82-.57-.12.02-.34.2-.42.3l-.2.27c-.11.15-.21-.33-.63-.56-.11-.06-.35.13-.43.23l-.26.32c-.19.23-.68-.59-.92-.46l-.52.29c-.19.11-.5-.36-.5-.58,0-.29.47-.66.69-.5ZM8.84,15.86c-.35.05-.55.31-.5.59.03.2.28.36.53.34.25-.02.41-.18.4-.42,0-.22-.25-.54-.43-.51ZM10.03,15.9c-.26.03-.35.48-.27.72.05.15.33.18.6.16.19-.01.33-.34.27-.63-.04-.17-.25-.29-.61-.25ZM11.26,15.84c-.22.27-.28.55-.12.79.1.15.4.19.7.11.11-.19.15-.31.11-.75l-.7-.14ZM12.6,15.92c-.21.09-.28.52-.16.68.13.19.59.27.75.15.15-.11.24-.51.11-.67-.13-.16-.44-.27-.7-.16ZM14.74,16.46c.08-.25-.33-.65-.57-.61-.19.03-.4.37-.4.54,0,.23.22.44.44.45.15,0,.47-.17.53-.38ZM10.08,17.22c-.26.05-.51.45-.41.62.11.17.38.38.54.35.19-.04.47-.4.45-.58-.02-.17-.4-.42-.58-.38ZM11.72,18.17c.17-.03.33-.39.31-.57-.02-.16-.24-.41-.41-.38-.37.07-.59.22-.57.52.02.38.31.5.68.43ZM12.87,17.2c-.34.09-.6.43-.45.64.1.14.4.4.56.37.19-.03.43-.42.43-.61,0-.17-.37-.46-.54-.41ZM14.18,17.2c-.27.09-.54.48-.43.65.12.18.38.38.54.35.21-.05.52-.39.46-.57-.05-.16-.4-.48-.58-.42ZM8.55,17.32c-.22.11-.28.51-.14.63.18.15.49.26.6.24.24-.33.25-.49.24-.76-.17-.13-.5-.2-.69-.11ZM13.41,19.03c.08-.21-.38-.61-.57-.51-.3.16-.47.35-.45.62,0,.18.23.39.41.41.27.02.49-.14.62-.51ZM13.92,19.39c.22.29.63.18.8-.06.12-.16-.03-.57-.22-.74-.14-.12-.5.01-.7.17-.11.08,0,.46.12.63ZM9.24,19.21c.06-.17.1-.38.02-.45l-.39-.17c-.19-.02-.54.25-.55.42,0,.19.23.48.41.51.15.02.45-.16.51-.31ZM10.22,19.56c.34,0,.48-.36.4-.68-.05-.21-.44-.31-.75-.24-.08.11-.13.37-.12.52.01.13.33.4.47.4ZM11.46,18.61c-.27.1-.47.44-.41.63.07.21.42.39.63.32.2-.07.37-.41.32-.62-.04-.16-.38-.38-.54-.32ZM14.87,20.32l-.55-.54-.55.54c-.12.12.04.52.25.59.37.12.75-.25.85-.59ZM8.83,19.94c-.33.03-.55.35-.5.59.04.17.33.32.54.33.25,0,.41-.18.4-.41-.01-.23-.25-.53-.43-.51ZM10.02,20.9c.4.04.71-.22.62-.61-.04-.2-.26-.36-.53-.32-.25.04-.4.44-.38.63.01.08.18.29.28.3ZM11.41,19.97c-.21.02-.42.45-.33.59.07.24.33.38.59.3.28-.12.34-.42.28-.67-.04-.16-.25-.26-.54-.23ZM12.6,20c-.18.06-.24.5-.22.61.26.27.48.3.78.28.17-.15.21-.56.08-.78-.09-.15-.39-.19-.64-.11ZM8.77,21.29c-.31.08-.53.45-.42.63.1.16.38.39.54.35.2-.04.46-.37.43-.56-.03-.16-.38-.46-.54-.42ZM10.09,21.3c-.29.07-.52.45-.42.63.1.16.38.39.54.35.2-.05.46-.37.43-.56-.03-.16-.37-.46-.55-.42ZM11.31,22.26c.42.07.67-.09.71-.38.04-.25-.19-.64-.37-.58-.33.1-.51.18-.56.33-.08.22.03.6.22.63ZM12.9,22.29c.19.08.52-.4.49-.63-.02-.18-.4-.47-.56-.39-.21.12-.47.35-.48.5s.27.39.55.51ZM14.19,21.27c-.31.1-.55.49-.44.65.12.18.38.38.54.35.21-.05.52-.39.46-.57-.05-.16-.4-.48-.56-.43ZM12.61,23.57c.22.07.52.02.62-.11.12-.15.18-.47.1-.6-.09-.14-.39-.34-.51-.27-.2.11-.44.37-.44.52,0,.13.11.42.24.45ZM13.92,23.47c.22.29.62.19.8-.07.11-.17-.01-.55-.22-.74-.13-.12-.49.02-.69.17-.11.08,0,.46.12.63ZM8.6,22.73c-.24.09-.35.5-.22.63.15.16.4.26.56.21.21-.07.37-.44.32-.61-.06-.24-.31-.38-.66-.24ZM10.22,23.64c.31.01.5-.39.42-.66-.07-.24-.46-.33-.77-.26-.08.1-.14.37-.12.52.01.13.33.39.47.4ZM11.46,22.69c-.27.1-.47.44-.41.63.07.21.42.39.63.32.2-.07.37-.41.32-.62-.04-.16-.38-.38-.54-.32ZM13.83,24.81c.28.28.73.15.88-.09.13-.2,0-.63-.32-.76-.33-.13-.86.55-.56.85ZM9.23,24.34c-.05-.26-.43-.38-.65-.25-.15.09-.29.42-.22.59.07.16.42.27.61.25.1-.01.36-.12.34-.21l-.08-.38ZM9.92,24.92c.3.08.72-.04.74-.34.01-.26-.12-.58-.45-.58-.17,0-.45.3-.47.48-.01.13.05.41.18.44ZM11.46,24.01c-.28.11-.45.42-.38.6.1.27.38.43.61.34.2-.08.37-.43.31-.62-.04-.16-.39-.38-.54-.32ZM12.61,24.07c-.19.07-.25.5-.23.61.26.27.48.3.78.28.17-.14.2-.57.08-.77-.09-.15-.42-.19-.63-.11Z"/>
    <path class="cls-1" d="M28.28,15.24c.44.23.42.61.37,1.01-.07.57-.32.85-.9.95-.17.03-.56.1-.7.04-.14-.06-.33-.32-.36-.42.23-.25.35-.52.24-.67-.58-.73-.71.34-1.5-.13-.21-.44-.11-.69.32-.99l-.6-.64c-.3.27-.67.45-.97.33-.12-.05-.31-.36-.24-.46l.36-.48c.11-.23-.45-.82-.67-.67-.23.16-.45.34-.6.32-.16-.02-.42-.29-.45-.45-.02-.15.16-.36.36-.61.01-.17-.29-.52-.53-.74l-.6.59c-.34-.09-.67-.51-.61-.83l.47-.48-.65-.65-.55.55c-.29-.06-.61-.38-.65-.66l.53-.6c-.32-.25-.57-.48-.52-.81.04-.24.66-.43.87-.27.11.08.22.42.16.53-.08.16-.2.28-.47.58l.63.65c.28-.3.63-.56.93-.46.13.04.3.33.26.46-.04.16-.22.38-.39.58-.1.17.38.77.61.68.28-.15.61-.37.84-.41.14-.03.38.39.31.51l-.35.61c-.13.23.37.75.6.59.22-.15.49-.31.69-.34.17-.03.44.25.45.47,0,.17-.11.35-.33.61-.13.16,0,.43.17.54.67.41.8-.74,1.34-.13l.25.28-.21.33c-.22.18-.31.54-.11.81.12.16.46.27.65.12.18-.14.41-.32.55-.33.15-.02.39.29.43.45.04.15-.13.36-.31.56-.2.21.09.79.48.79l.63-.59-.55-.75.35-.37Z"/>
    <path class="cls-2" d="M4.24,16.5c.14.59-.86.83-1.55.71-.15-.03-.38-.33-.33-.48.05-.15.2-.43.13-.53l-.38-.56.7-.76c.14.34.35.64.59.74l.62-.62-.65-.67.77-.77c.22.26.43.5.61.67l.68-.63-.72-.61.82-.81.5.81-.51.54c0,.23.31.55.6.69l.62-.59-.61-.71.67-.69-.59-.56-.27.09-.05-.31c0-.06.18,0,.3,0,.21-.01.51-.44.42-.66-.11-.29-.42-.47-.69-.4,0-.12-.02-.32.02-.3l.22.12.64-.56c.19.18.41.4.62.65l.81-.81-.52-.25c-.13-.06-.03-.48.07-.65.08-.13.47-.24.62-.16.15.08.17.32.21.63l.92-.81.63.63-.71.64c-.3-.42-.52-.57-.76-.46-.32.15-.52.56-.32.77l.41.43-.65.65.65.66-.59.61.43,1.05c-.21.09-.5.18-.64.12-.14-.06-.37-.35-.44-.49l.57-.63-.59-.64.58-.66-.56-.63-.69.55.61.74-.64.64.66.69c-.29.19-.67.56-.54.83.13.28.35.69.22.88-.33.24-.69.05-.97-.19-.21-.18-.75.38-.61.59.14.2.29.37.29.49,0,.14-.1.45-.18.54-.35.02-.66-.08-.99-.26-.24-.12-.49.42-.43.69ZM5.33,14.9l-.59-.64-.52.56c-.14.16.15.69.39.72.24,0,.63-.4.72-.64ZM4.01,16.31l-.68-.64c-.29.3-.45.49-.47.7-.02.18.37.5.54.44.16-.05.35-.22.6-.51Z"/>
    <path class="cls-1" d="M17.69,8.2c-.25-.21-.47-.44-.71-.74l.6-.62.71.72-.6.64Z"/>
    <path class="cls-1" d="M10.09,10.14c-.13.19-.34.47-.55.63-.27.2-.79-.4-.59-.63l.51-.6.63.61Z"/>
    <polygon class="cls-1" points="10.78 8.19 10.19 7.62 10.92 6.91 11.53 7.51 10.78 8.19"/>
    <path class="cls-1" d="M16.28,6.8c-.19-.15-.47-.44-.64-.63l.61-.66.67.68-.65.61Z"/>
    <path class="cls-1" d="M7.27,9c-.01.17-.3.49-.45.45-.17-.05-.43-.2-.51-.26-.13-.35-.04-.57.2-.77.38-.12.79.19.76.59Z"/>
    <path class="cls-1" d="M14.13,6.04c-.04.22-.33.58-.6.69-.17.07-.49-.35-.52-.57-.02-.18.2-.38.43-.47.18-.07.5.09.69.36Z"/>
    <path class="cls-1" d="M7.45,26.6c-.18.16-.5.36-.67.35-.19-.02-.43-.17-.69-.34l.62-.76.74.76Z"/>
    <path class="cls-1" d="M19.64,8.86l-.61.61c-.17-.07-.49-.29-.55-.45-.08-.2.16-.54.45-.77l.71.61Z"/>
    <path class="cls-1" d="M12.69,7.5c0,.28-.23.51-.51.51s-.51-.23-.51-.51.23-.51.51-.51.51.23.51.51Z"/>
    <path class="cls-1" d="M11.46,8.9c-.25.22-.51.43-.72.58-.2-.18-.4-.4-.44-.56-.03-.15.19-.43.39-.62.24.08.5.3.76.59Z"/>
    <path class="cls-1" d="M15.5,4.84l-.57.59c-.25-.09-.57-.39-.53-.74.02-.2.41-.39.58-.34.18.06.47.35.52.49Z"/>
    <path class="cls-1" d="M6.22,7.76c-.12-.13.07-.49.21-.6.2-.15.73-.11.76.12.04.3-.06.59-.23.72-.14.11-.5.04-.74-.23Z"/>
    <rect class="cls-1" x="13.12" y="4.41" width=".93" height=".85" transform="translate(.57 11.02) rotate(-45)"/>
    <path class="cls-1" d="M15.39,6c.14.16-.13.59-.33.59-.36,0-.62-.11-.77-.56l.7-.5.4.48Z"/>
    <path class="cls-1" d="M19.41,7.23c.14.46-.12.8-.52.9l-.53-.51c.09-.14.28-.37.4-.48.12-.11.6-.07.65.09Z"/>
    <path class="cls-1" d="M18.04,6.42c-.17.19-.49.35-.61.27-.11-.08-.32-.31-.34-.45-.03-.16.22-.45.37-.48.27-.04.4-.08.51-.01.15.09.18.54.06.67Z"/>
    <path class="cls-1" d="M6,26.46c.01.12-.3.46-.47.48-.2.02-.49-.14-.75-.34.22-.31.41-.5.69-.7l.53.56Z"/>
    <path class="cls-3" d="M11.62,6.28c.11-.2.45-.54.65-.66.23.2.46.41.46.56,0,.15-.24.39-.38.5-.15.11-.44-.05-.72-.4Z"/>
    <path class="cls-1" d="M6.76,5.67c.18-.05.48.27.51.45.03.19-.24.54-.43.55-.17.01-.46-.2-.57-.33-.14-.18.16-.57.48-.67Z"/>
    <path class="cls-1" d="M16.77,4.59l-.21.62c-.05.15-.44.18-.57.08-.14-.11-.28-.46-.21-.66.11-.35.76-.31.99-.04Z"/>
    <path class="cls-1" d="M11.27,10.49c-.17.08-.45.17-.59.14-.17-.04-.41-.36-.46-.51l.61-.6c.26.33.41.6.44.97Z"/>
    <path class="cls-1" d="M9.82,11.93c-.18.13-.77,0-.87-.21-.12-.24.23-.66.47-.75.26.08.63.59.41.96Z"/>
    <path class="cls-1" d="M5.61,24.29c-.31.1-.62-.03-.65-.39-.03-.3.2-.5.52-.56.18-.03.4.22.42.38.02.18-.12.51-.29.57Z"/>
    <path class="cls-1" d="M2.64,27.41c.17-.03.49.28.54.44.05.18-.24.53-.42.54-.16.01-.46-.2-.56-.33-.11-.15.21-.6.45-.65Z"/>
    <path class="cls-1" d="M5.27,24.76c.29-.09.53.09.63.37,0,.21-.11.42-.46.56-.1-.01-.37-.12-.46-.27-.12-.2-.02-.56.29-.65Z"/>
    <path class="cls-1" d="M14.32,3.61c.03-.29.57-.67.83-.6.23.26.25.72,0,.87-.18.1-.51.06-.82-.27Z"/>
    <path class="cls-1" d="M7.73,7.79c-.05-.29-.03-.63.13-.67.22-.05.61,0,.68.15.08.18,0,.58-.13.69-.15.12-.63,0-.68-.17Z"/>
    <path class="cls-1" d="M5.34,21.97c.15-.06.49.16.54.31.06.19-.11.55-.31.62-.17.06-.51-.14-.61-.34-.08-.16.11-.5.38-.6Z"/>
    <path class="cls-1" d="M7.02,5.25c-.1.07-.64.01-.66-.11l-.07-.52c-.02-.16.44-.29.58-.26.28.05.45.68.15.89Z"/>
    <path class="cls-1" d="M5.34,20.65c.15-.06.49.16.54.31.06.19-.1.54-.31.62-.17.06-.5-.14-.61-.34-.08-.16.11-.5.38-.6Z"/>
    <path class="cls-1" d="M5.71,20.14c-.16.05-.65.04-.68-.09-.02-.12-.03-.34-.02-.54,0-.14.19-.15.53-.29.08.04.26.2.34.32.07.11-.04.55-.17.59Z"/>
    <path class="cls-1" d="M21.54,18.8l-.24-.07-.03-.25c-.03-.24.15-.54.44-.57.23-.03.44.18.47.39.04.38-.26.53-.64.5Z"/>
    <path class="cls-1" d="M13.44,7.96c-.24-.13-.52-.33-.5-.45.02-.13.22-.38.35-.45.28-.16.52.05.6.28.09.26-.27.73-.46.63Z"/>
    <path class="cls-1" d="M12.23,9.32l-.51-.18c-.11-.04-.15-.44-.05-.5l.57-.35c.09.03.27.33.32.48.04.14-.16.39-.34.55Z"/>
    <path class="cls-1" d="M22.24,15.78c.01.18-.38.43-.55.39-.21-.04-.47-.38-.54-.63.18-.36,1.05-.27,1.09.24Z"/>
    <path class="cls-1" d="M5.34,16.57c.15-.06.5.16.54.32.04.17-.16.51-.34.6-.16.07-.49-.12-.58-.32-.08-.17.13-.5.38-.59Z"/>
    <path class="cls-1" d="M22.12,20.06c-.16.13-.67.07-.83.01v-.7s.62-.01.62-.01c.22,0,.42.53.21.7Z"/>
    <path class="cls-1" d="M5.46,17.9c.16-.02.43.27.44.42.02.19-.26.47-.46.5-.18.03-.48-.22-.49-.4-.02-.21.25-.5.5-.52Z"/>
    <path class="cls-1" d="M21.66,16.57c.19-.07.5.17.52.37.01.22-.11.45-.28.49-.24.06-.53-.05-.6-.2-.12-.26.04-.56.36-.67Z"/>
    <path class="cls-1" d="M16.74,7.33c.13.28-.24.7-.52.66-.27-.04-.43-.44-.32-.75.07-.21.69-.23.84.09Z"/>
    <path class="cls-1" d="M8.64,26.66c-.19.39-.8.41-1.07.03.14-.32.42-.63.69-.69l.38.66Z"/>
    <path class="cls-1" d="M17.51,9.3l-.34-.38c-.08-.09.22-.37.33-.45.1-.08.44-.02.52.09.08.11.09.4.03.52-.06.14-.43.34-.54.22Z"/>
    <path class="cls-1" d="M20.34,12.13l-.55-.54.54-.55c.19.11.44.34.54.58l-.53.51Z"/>
    <path class="cls-1" d="M8.61,6.16c0,.2-.26.47-.54.43-.25-.03-.35-.13-.38-.38-.05-.32.23-.58.48-.53l.44.47Z"/>
    <path class="cls-1" d="M8.61,14.32c0,.2-.26.47-.54.43-.25-.03-.35-.13-.38-.38-.05-.32.23-.58.48-.53l.44.47Z"/>
    <path class="cls-1" d="M20.83,15.57c.07.13-.2.52-.34.56-.14.04-.36-.05-.52-.16-.12-.09-.15-.47-.02-.55.2-.13.76-.05.87.15Z"/>
    <polygon class="cls-1" points="20.34 20.29 19.8 19.74 20.34 19.2 20.9 19.75 20.34 20.29"/>
    <path class="cls-1" d="M9.92,26.53c0,.24-.2.44-.44.44s-.44-.2-.44-.44.2-.44.44-.44.44.2.44.44Z"/>
    <path class="cls-1" d="M7.2,15.8c.01.16-.37.43-.49.36-.13-.08-.34-.29-.42-.42-.07-.13.18-.48.32-.5.19-.02.56.3.59.56Z"/>
    <path class="cls-1" d="M27.61,14.6l-.42.29-.36-.21-.22-.35c-.06-.1.15-.42.26-.4.26.04.62.42.73.67Z"/>
    <path class="cls-1" d="M18.47,10.27l.62-.6c.16.14.33.37.35.54.01.15-.12.39-.26.42-.24.06-.42-.06-.71-.36Z"/>
    <path class="cls-1" d="M21.66,12.51c.13-.06.45.18.51.32.06.15-.17.44-.33.57-.13.1-.45-.18-.55-.33-.1-.14.18-.47.38-.56Z"/>
    <path class="cls-1" d="M9.91,12.97c-.05.18-.28.44-.4.46-.15.02-.41-.2-.48-.35-.07-.13.14-.38.34-.56.14-.13.6.27.55.45Z"/>
    <path class="cls-1" d="M22.83,16.6c.13-.06.53.13.54.27.02.2-.03.48-.19.53-.23.07-.46.05-.54-.07-.13-.2-.08-.6.19-.73Z"/>
    <path class="cls-1" d="M11.19,14.62c-.38.31-.7.07-.84-.3l.52-.51c.3.16.51.66.32.81Z"/>
    <path class="cls-1" d="M8.62,4.85c-.15.31-.6.55-.83.31-.22-.22,0-.67.31-.84l.52.52Z"/>
    <path class="cls-1" d="M11.18,26.83l-.52.13-.36-.36.56-.55c.29.18.5.56.32.78Z"/>
    <path class="cls-1" d="M23.37,18.1l-.06.6c-.4.13-.5.1-.67-.02-.14-.31-.03-.62.17-.75l.56.17Z"/>
    <path class="cls-1" d="M22.95,20.23c-.12.04-.37-.17-.39-.3-.03-.15.11-.48.24-.57.13-.09.5.09.58.25.08.16-.23.55-.42.61Z"/>
    <path class="cls-1" d="M24.97,15.67c-.13.13-.41.37-.59.42-.13.03-.43-.33-.36-.43l.37-.55.57.57Z"/>
    <path class="cls-1" d="M18.47,26.6l.56-.57c.19.2.39.38.39.53,0,.15-.28.42-.44.42-.15,0-.36-.2-.52-.39Z"/>
    <path class="cls-1" d="M18.12,26.6c-.1.17-.36.41-.51.39s-.43-.27-.43-.42c0-.15.2-.34.4-.53l.54.56Z"/>
    <path class="cls-1" d="M19.42,15.57c.07.1-.17.46-.27.53-.12.08-.29-.03-.48-.17-.14-.1-.19-.39-.02-.53.14-.12.65,0,.77.17Z"/>
    <path class="cls-1" d="M26.12,13.27c-.12.25-.56.18-.7,0-.16-.19-.18-.61.16-.68.23-.05.64.47.54.67Z"/>
    <path class="cls-1" d="M22.11,26.65c.03.12-.31.4-.43.34-.12-.06-.31-.22-.41-.34-.1-.12.13-.38.36-.58.13.02.42.35.48.58Z"/>
    <path class="cls-1" d="M16.51,24.14l-.26.2-.27-.26-.22-.21c-.06-.05.05-.17.17-.31.1-.11.46-.16.58-.06.16.13.13.5,0,.63Z"/>
    <path class="cls-1" d="M11.21,11.73c-.04.13-.34.45-.42.36l-.42-.45c-.09-.1.23-.35.4-.46.16-.03.5.37.44.56Z"/>
    <path class="cls-1" d="M24.83,11.79c-.21.43-.53.34-.76.08-.22-.24-.21-.55.15-.7l.61.62Z"/>
    <path class="cls-1" d="M22.54,26.61l.52-.45c.1-.09.46.19.43.31-.03.15-.19.43-.33.5-.13.07-.41-.1-.62-.36Z"/>
    <path class="cls-1" d="M13.36,8.55c.12-.07.5,0,.55.13.06.14-.05.45-.2.62-.11.12-.32-.03-.53-.23-.13-.12-.06-.38.18-.53Z"/>
    <path class="cls-1" d="M13.87,26.2c.06.18.06.6-.07.71-.12.1-.42.04-.59-.09-.13-.1-.11-.5.03-.56l.62-.05Z"/>
    <path class="cls-1" d="M12.49,26.83c-.18.16-.65.11-.69-.05-.05-.21.08-.56.34-.67.23-.1.6.5.35.72Z"/>
    <path class="cls-1" d="M22.46,15.78l.58-.55c.14.03.43.38.34.49-.1.13-.29.32-.44.44-.11.09-.37-.23-.48-.38Z"/>
    <path class="cls-1" d="M23.2,14.7c-.11.1-.43-.06-.49-.18-.07-.14.09-.46.25-.61.12-.11.39.03.51.18.09.11-.05.42-.26.61Z"/>
    <path class="cls-1" d="M20.65,26.83c-.18.16-.65.11-.69-.06-.05-.2.08-.56.34-.67.23-.1.6.5.36.72Z"/>
    <path class="cls-1" d="M22.19,20.94c.08.07-.52.69-.63.55l-.19-.26-.09-.19c-.04-.08.45-.52.57-.41l.33.3Z"/>
    <path class="cls-1" d="M16.12,9.87c.11-.09.42.09.58.28-.02.15-.08.28-.34.53-.08-.02-.3-.12-.43-.2-.13-.08-.05-.43.19-.61Z"/>
    <path class="cls-1" d="M14.95,8.05l-.56-.55.46-.4c.11-.09.36.26.44.4.07.12-.07.29-.34.56Z"/>
    <rect class="cls-1" x="11.87" y="13.93" width=".68" height=".76" transform="translate(-6.54 12.83) rotate(-45)"/>
    <rect class="cls-1" x="11.83" y="11.27" width=".76" height=".68" transform="translate(-4.63 12.03) rotate(-45)"/>
    <path class="cls-1" d="M23.54,10.5c-.27.31-.47.27-.75.1-.24-.14-.24-.43-.02-.82l.77.72Z"/>
    <path class="cls-1" d="M20.6,18.76c-.21.18-.69-.22-.69-.45l.42-.41c.31.16.58.61.27.86Z"/>
    <rect class="cls-1" x="14.53" y="8.57" width=".76" height=".68" transform="translate(-1.93 13.15) rotate(-45)"/>
    <path class="cls-1" d="M12.6,10.29c0,.12-.31.47-.4.39l-.41-.37c-.11-.1.13-.36.35-.55.12.01.44.36.46.54Z"/>
    <path class="cls-1" d="M26.28,16.94c-.08.15-.4.46-.58.46-.13,0-.43-.27-.35-.37l.34-.43c.09-.11.41.13.59.34Z"/>
    <path class="cls-1" d="M20.66,17.35c-.24.21-.55.1-.68-.1-.11-.17.03-.48.32-.62.22-.1.59.51.36.72Z"/>
    <path class="cls-1" d="M9.91,14.37c.03.15-.32.4-.47.38-.17-.02-.48-.32-.38-.46.1-.14.34-.4.45-.36.13.05.38.3.4.44Z"/>
    <path class="cls-1" d="M18.97,17.51c-.18-.23-.32-.4-.37-.52-.07-.14.3-.49.43-.4.13.09.4.38.37.51-.03.15-.31.37-.43.41Z"/>
    <path class="cls-1" d="M16.09,11.23c.19-.05.44.02.52.13.09.13-.04.49-.17.61-.11.1-.47-.05-.54-.23-.06-.14.05-.47.2-.51Z"/>
    <path class="cls-1" d="M17.74,25.57c-.12.14-.44-.11-.55-.28-.08-.13.23-.45.42-.51.1-.04.3.11.37.2.08.1-.08.42-.24.6Z"/>
    <path class="cls-1" d="M13.49,14.72l-.45-.43c.14-.18.33-.36.47-.37.16-.01.4.27.43.42.03.15-.33.5-.45.39Z"/>
    <path class="cls-1" d="M24.83,26.87h-.83s.16-.62.16-.62c.03-.13.54-.08.57.05l.1.57Z"/>
    <path class="cls-1" d="M19.03,25.69l-.57-.56.44-.36c.11-.09.4.24.47.36.07.12-.08.29-.34.56Z"/>
    <path class="cls-1" d="M26.2,26.93c-.48-.03-.69-.05-.86-.11l.08-.5c.02-.11.46-.23.49-.13l.29.75Z"/>
    <path class="cls-1" d="M13.3,12.66c.17-.12.61-.03.62.11.01.14-.07.42-.15.56-.08.12-.38.05-.47-.06-.09-.12-.11-.52,0-.61Z"/>
    <path class="cls-1" d="M18.01,10.29c.01.12-.32.48-.4.39l-.38-.4c-.1-.1.08-.32.32-.53.12.02.44.36.46.54Z"/>
    <path class="cls-1" d="M19.2,18.7c-.08.11-.38.13-.45.04-.09-.11-.17-.43-.09-.53.14-.19.44-.25.62-.11.15.11.12.34-.08.6Z"/>
    <path class="cls-1" d="M15.12,10.54c-.08.11-.38.13-.45.05-.1-.12-.17-.43-.09-.53.14-.18.44-.25.61-.11.15.11.12.34-.08.6Z"/>
    <path class="cls-1" d="M15.12,14.62c-.08.11-.38.13-.45.04-.1-.11-.17-.43-.09-.54.13-.18.44-.24.61-.11.15.11.12.34-.08.61Z"/>
    <path class="cls-1" d="M22.11,9.13c-.06.14-.41.29-.54.23-.13-.06-.33-.28-.33-.41,0-.14.19-.43.28-.45l.59.64Z"/>
    <path class="cls-1" d="M20.19,13.96c.12-.05.44.12.47.24.03.15-.08.54-.22.52-.15-.01-.33-.07-.43-.15-.16-.11-.07-.5.19-.62Z"/>
    <path class="cls-1" d="M16.09,19.38c.19-.05.51.04.53.18.03.14-.09.49-.22.55s-.42-.06-.49-.18c-.09-.13.03-.51.18-.55Z"/>
    <path class="cls-1" d="M19.48,11.7l-.46.3c-.11.07-.41-.21-.42-.34-.01-.13.09-.28.29-.54l.59.58Z"/>
    <path class="cls-1" d="M15.34,12.86c-.06.23-.26.51-.39.48-.13-.03-.36-.22-.42-.34-.06-.12.13-.37.29-.51l.53.37Z"/>
    <path class="cls-1" d="M21.76,25.65c-.11,0-.4-.22-.46-.34-.08-.14.24-.46.41-.54.11-.05.35.19.35.31,0,.12-.12.34-.29.57Z"/>
    <path class="cls-1" d="M16.62,26.8c-.06.19-.6.15-.72.04l.33-.8c.31.19.5.47.39.77Z"/>
    <path class="cls-1" d="M17.2,11.67c.05-.15.28-.47.43-.5.13-.03.43.29.36.39l-.31.43c-.09.12-.53-.18-.48-.32Z"/>
    <rect class="cls-1" x="11.84" y="12.62" width=".68" height=".68" transform="translate(-5.6 12.41) rotate(-45)"/>
    <rect class="cls-1" x="15.92" y="8.54" width=".68" height=".68" transform="translate(-1.52 14.1) rotate(-45)"/>
    <path class="cls-1" d="M20.59,7.89c-.07.21-.46.08-.63-.09-.13-.13-.14-.54.04-.58.31-.07.71.3.59.67Z"/>
    <path class="cls-1" d="M16.09,15.3c.19-.05.51.04.53.18s-.09.49-.22.55c-.12.06-.42-.06-.49-.18-.09-.13.03-.51.18-.55Z"/>
    <path class="cls-1" d="M19.26,13.18c-.03.17-.52.18-.62.03-.09-.14,0-.55.16-.66l.41.1c.07.09.08.32.05.53Z"/>
    <rect class="cls-1" x="10.52" y="12.62" width=".68" height=".68" transform="translate(-5.98 11.48) rotate(-45)"/>
    <rect class="cls-1" x="15.92" y="24.86" width=".68" height=".68" transform="translate(-13.06 18.88) rotate(-45)"/>
    <rect class="cls-1" x="20" y="24.86" width=".68" height=".68" transform="translate(-11.86 21.76) rotate(-45)"/>
    <rect class="cls-1" x="15.92" y="22.1" width=".68" height=".68" transform="translate(-11.1 18.07) rotate(-45)"/>
    <path class="cls-1" d="M17.67,22.87c-.17-.03-.47-.34-.47-.51,0-.13.4-.39.48-.29l.31.43c.08.11-.19.4-.32.37Z"/>
    <path class="cls-1" d="M19.3,6.6c-.12.08-.44.02-.59-.07-.16-.09-.19-.42-.09-.72.31.01.69.39.69.8Z"/>
    <path class="cls-1" d="M23.31,25.49c-.1.13-.47.01-.59-.16-.1-.15.07-.55.26-.55.31,0,.59.37.32.71Z"/>
    <path class="cls-1" d="M15.15,11.93c-.1.13-.47.01-.59-.16-.1-.15.07-.55.26-.55.31,0,.59.37.32.71Z"/>
    <circle class="cls-1" cx="6.75" cy="27.93" r=".38"/>
    <rect class="cls-1" x="13.22" y="9.92" width=".68" height=".68" transform="translate(-3.28 12.59) rotate(-45)"/>
    <path class="cls-1" d="M18.22,15.57l-.52.48c-.09.09-.37-.18-.42-.3-.06-.14.17-.52.3-.46l.63.28Z"/>
    <path class="cls-1" d="M16.39,18.86l-.52-.39c-.1-.08.11-.36.22-.43.11-.08.48.05.51.19.05.16-.12.53-.21.64Z"/>
    <circle class="cls-1" cx="16.26" cy="21.12" r=".37"/>
    <path class="cls-1" d="M18.87,19.35c.11-.07.45.17.45.3,0,.13-.14.38-.24.47-.1.08-.37-.1-.45-.21-.08-.11.05-.43.24-.56Z"/>
    <path class="cls-1" d="M17.96,13.13c0,.15-.36.24-.5.19-.16-.06-.23-.48-.12-.61.11-.13.53-.11.61-.01v.43Z"/>
    <path class="cls-1" d="M16.58,14.5c-.08.14-.16.28-.2.26l-.2-.12c-.13-.08-.35-.36-.28-.49.07-.14.42-.26.55-.19.13.07.21.41.14.54Z"/>
    <path class="cls-1" d="M15.32,26.85c-.28.14-.75.13-.79-.06-.06-.31.25-.54.53-.61l.26.67Z"/>
    <path class="cls-1" d="M21.98,14.51c-.07.12-.16.27-.19.25l-.21-.12c-.13-.07-.34-.35-.28-.49.07-.14.42-.26.55-.19.13.07.21.41.13.55Z"/>
    <path class="cls-1" d="M20.16,23.48c.16-.09.51.12.52.29,0,.13-.11.41-.28.44-.13.02-.33-.09-.43-.24-.08-.11.02-.4.19-.5Z"/>
    <path class="cls-1" d="M18.86,23.44c.11-.07.46.17.46.3,0,.13-.13.37-.25.47-.1.09-.37-.11-.45-.21-.08-.11.06-.44.23-.56Z"/>
    <path class="cls-1" d="M17.55,23.43c.11-.07.45.17.46.3,0,.13-.13.37-.24.47-.1.08-.37-.1-.45-.21-.08-.11.05-.44.23-.55Z"/>
    <path class="cls-1" d="M13.47,11.19c.11-.07.45.17.45.3,0,.13-.14.38-.24.47-.1.08-.37-.1-.45-.21-.08-.11.04-.43.24-.56Z"/>
    <path class="cls-1" d="M18.02,20.94c-.1.23-.22.46-.33.54-.12.09-.5-.17-.49-.32.01-.11.22-.38.33-.38.13,0,.42.09.48.17Z"/>
    <path class="cls-1" d="M16.08,16.72c.12-.09.55.06.55.18,0,.13-.1.34-.19.45-.08.1-.37-.02-.51-.13-.11-.08-.03-.38.15-.51Z"/>
    <path class="cls-1" d="M19.29,22.27c.06.24-.11.56-.29.6-.11.02-.35-.17-.39-.27-.05-.12.11-.37.26-.47.11-.07.39,0,.43.13Z"/>
    <path class="cls-1" d="M16.08,12.64c.11-.08.54.06.54.19,0,.13-.1.34-.19.45-.08.1-.37-.02-.51-.13-.11-.09-.04-.37.16-.52Z"/>
    <path class="cls-1" d="M19.12,20.75c.24-.05.21.78-.01.74-.11-.02-.34-.15-.41-.23l-.21-.21.19-.22.43-.08Z"/>
    <path class="cls-1" d="M20.16,12.64c.11-.09.54.06.55.19,0,.13-.1.34-.19.45-.08.1-.38-.02-.51-.13-.11-.09-.03-.37.15-.51Z"/>
    <path class="cls-1" d="M17.7,14.69c-.15.03-.47-.27-.51-.42-.04-.17.36-.42.52-.33.25.14.25.7-.01.75Z"/>
    <path class="cls-1" d="M20.32,20.64l.38.38c.1.1-.15.43-.28.47-.12.03-.36-.16-.43-.29-.07-.12.09-.32.34-.57Z"/>
    <path class="cls-1" d="M11.91,27.68c.07-.12.59-.08.53.03.11.13.11.33-.02.47-.19.07-.31.08-.49.05-.13-.02-.11-.4-.02-.55Z"/>
    <path class="cls-1" d="M20.07,27.67c.07-.11.58-.07.52.04.11.13.11.33-.02.47-.18.07-.34.08-.49.05-.13-.03-.13-.38-.02-.56Z"/>
    <path class="cls-1" d="M24.15,27.68c.07-.12.6-.08.53.02.11.13.11.33-.02.47-.18.07-.33.08-.49.05-.12-.03-.11-.41-.02-.55Z"/>
    <path class="cls-1" d="M11.15,27.69c.04.12-.07.46-.17.51-.11.05-.29.08-.39.02-.09-.06-.19-.39-.13-.48.09-.15.63-.21.69-.04Z"/>
    <path class="cls-1" d="M17.93,5.11c-.07.14-.48.16-.58.05-.14-.14-.19-.38-.06-.68.23,0,.61.32.64.62Z"/>
    <path class="cls-1" d="M15.99,27.67c.06-.11.59-.07.52.04.11.13.11.33-.02.47-.2.08-.3.08-.5.05-.13-.02-.11-.38,0-.56Z"/>
    <path class="cls-1" d="M18.8,13.97c.27.03.47.08.49.2.02.16-.05.45-.18.5-.14.06-.37,0-.44-.1-.09-.15,0-.48.13-.6Z"/>
    <circle class="cls-1" cx="23.04" cy="23.84" r=".36"/>
    <path class="cls-1" d="M24.75,25.2c0,.2-.16.36-.36.36s-.36-.16-.36-.36.16-.36.36-.36.36.16.36.36Z"/>
    <path class="cls-1" d="M24.16,23.59c.07-.11.58-.06.52.04.11.13.11.33-.02.47-.18.07-.33.08-.49.05-.13-.03-.13-.36-.01-.56Z"/>
    <path class="cls-1" d="M4.16,28.32l-.49-.39c-.11-.09.14-.44.28-.43.15.01.41.16.4.28,0,.14-.12.48-.19.54Z"/>
    <path class="cls-1" d="M14.67,27.66c.09-.07.48-.1.55,0,.08.11-.02.39-.13.56-.08.11-.31.08-.47-.04-.11-.09-.06-.42.05-.51Z"/>
    <path class="cls-1" d="M21.81,22.87c-.14,0-.38-.16-.45-.27-.07-.12.07-.52.19-.48.15.05.4.23.48.33.07.1-.09.43-.21.43Z"/>
    <path class="cls-1" d="M18.73,27.67c.07-.09.47-.07.54.03.08.11.01.37-.09.51-.07.09-.28.09-.41.03-.12-.06-.17-.39-.03-.56Z"/>
    <path class="cls-1" d="M22.95,22.87c-.13-.03-.36-.38-.25-.46l.55-.36c.05.12.11.34.13.49.02.13-.3.35-.43.33Z"/>
    <path class="cls-1" d="M24.28,16.68c.11-.02.4.07.43.18.04.13-.04.42-.15.53-.1.1-.4-.07-.5-.21-.08-.11.07-.31.22-.5Z"/>
    <path class="cls-1" d="M21.67,24.22l-.31-.31c-.08-.08.11-.37.24-.45.12-.08.4.16.44.3.05.16-.25.58-.37.47Z"/>
    <path class="cls-1" d="M25.64,24.88c.17-.04.35.04.41.2s0,.35-.15.43c-.07.05-.38-.03-.48-.12-.11-.1.01-.37.22-.51Z"/>
    <path class="cls-1" d="M5.17,27.63c.11-.06.46-.01.52.09.07.12.03.35-.08.5-.08.11-.36.05-.47-.07-.09-.1-.09-.46.03-.52Z"/>
    <path class="cls-1" d="M25.46,27.68c.03-.11.5-.12.56-.03.08.11.08.32.02.48-.04.11-.3.22-.39.15-.11-.09-.25-.43-.2-.6Z"/>
    <path class="cls-1" d="M17.94,17.31l-.55.03c-.1,0-.21-.25-.19-.34.05-.2.42-.33.61-.28.15.05.14.41.13.6Z"/>
    <path class="cls-1" d="M20.32,22.12c.12,0,.33.15.36.25.04.13-.18.48-.31.44-.13-.04-.32-.19-.45-.32-.1-.1.26-.38.4-.37Z"/>
    <path class="cls-1" d="M8.28,28.25c-.16.12-.6-.3-.56-.5.04-.14.47-.21.61-.14s.07.55-.05.64Z"/>
    <path class="cls-1" d="M9.52,7.99l-.53-.48.53-.5c.22.36.22.62,0,.98Z"/>
    <path class="cls-1" d="M24.67,20.02c-.04.13-.4.08-.49-.02-.09-.1-.11-.55.03-.55h.46c.11-.01.06.4,0,.57Z"/>
    <path class="cls-1" d="M21.48,27.63c.1-.06.49-.02.52.09.03.13-.02.32-.1.5-.06.12-.36.05-.45-.07-.09-.12-.08-.45.03-.52Z"/>
    <path class="cls-1" d="M22.81,27.66c.07-.09.47-.05.51.06.05.12.02.36-.07.49-.06.09-.3.08-.41.01-.11-.07-.15-.4-.03-.56Z"/>
    <path class="cls-1" d="M16.54,3.74c-.07.12-.36.2-.45.15-.12-.06-.31-.39-.22-.5.08-.11.36-.17.46-.12s.27.37.22.47Z"/>
    <path class="cls-1" d="M9.27,27.64c.07-.08.47-.02.49.08.02.13-.02.32-.09.5-.05.12-.36.06-.46-.06-.08-.1-.04-.4.06-.52Z"/>
    <path class="cls-1" d="M13.35,27.64c.07-.08.48-.03.49.08.02.13-.02.33-.09.5-.05.12-.36.06-.46-.06-.08-.1-.03-.41.06-.52Z"/>
    <path class="cls-1" d="M17.44,27.63c.07-.09.47-.02.49.09.02.13-.02.33-.09.5-.05.12-.36.06-.46-.06-.08-.1-.04-.39.06-.52Z"/>
    <path class="cls-1" d="M24.37,18.04c.17,0,.39.16.38.28-.02.14-.12.37-.23.41-.14.04-.42-.06-.43-.18,0-.17.14-.52.29-.51Z"/>
    <path class="cls-1" d="M23.18,21.48c-.22,0-.51-.4-.45-.57.07-.14.53-.16.62-.03.08.13,0,.6-.16.6Z"/>
    <path class="cls-1" d="M25.56,23.55c.1-.06.49-.02.51.08.03.13-.01.33-.09.5-.05.11-.34,0-.45-.08-.11-.08-.09-.44.03-.5Z"/>
    <path class="cls-1" d="M14.87,20.32c-.1.34-.48.71-.85.59-.21-.07-.37-.47-.25-.59l.55-.54.55.54Z"/>
    <path class="cls-1" d="M13.92,19.39c-.13-.17-.23-.55-.12-.63.21-.15.56-.29.7-.17.19.16.34.57.22.74-.17.24-.57.35-.8.06Z"/>
    <path class="cls-1" d="M13.41,19.03c-.13.37-.35.53-.62.51-.18-.01-.4-.23-.41-.41-.01-.27.15-.45.45-.62.19-.1.65.31.57.51Z"/>
    <path class="cls-1" d="M13.83,24.81c-.3-.3.24-.99.56-.85.33.14.45.56.32.76-.15.24-.6.37-.88.09Z"/>
    <path class="cls-1" d="M13.92,23.47c-.13-.17-.23-.55-.12-.63.2-.15.56-.29.69-.17.21.19.34.57.22.74-.17.26-.57.35-.8.07Z"/>
    <path class="cls-1" d="M12.61,23.57c-.13-.04-.24-.32-.24-.45,0-.15.24-.41.44-.52.12-.07.41.13.51.27.09.13.02.45-.1.6-.1.13-.4.17-.62.11Z"/>
    <path class="cls-1" d="M12.87,17.2c.18-.05.54.24.54.41,0,.19-.24.58-.43.61-.17.02-.46-.23-.56-.37-.16-.21.11-.55.45-.64Z"/>
    <path class="cls-1" d="M11.72,18.17c-.36.07-.65-.05-.68-.43-.02-.3.2-.45.57-.52.17-.03.39.22.41.38.02.18-.13.54-.31.57Z"/>
    <path class="cls-1" d="M12.9,22.29c-.28-.12-.57-.36-.55-.51s.27-.39.48-.5c.16-.09.54.2.56.39.03.23-.3.71-.49.63Z"/>
    <path class="cls-1" d="M12.6,15.92c.26-.11.57,0,.7.16.13.16.03.57-.11.67-.16.12-.62.03-.75-.15-.12-.16-.04-.6.16-.68Z"/>
    <path class="cls-1" d="M14.19,21.27c.16-.05.51.27.56.43.06.18-.25.52-.46.57-.16.04-.42-.16-.54-.35-.11-.16.13-.55.44-.65Z"/>
    <path class="cls-1" d="M11.31,22.26c-.19-.03-.31-.41-.22-.63.06-.15.23-.23.56-.33.18-.06.4.34.37.58-.04.29-.29.45-.71.38Z"/>
    <path class="cls-1" d="M14.18,17.2c.17-.06.53.26.58.42.06.18-.26.52-.46.57-.16.04-.42-.16-.54-.35-.11-.16.16-.56.43-.65Z"/>
    <path class="cls-1" d="M12.61,24.07c.22-.08.55-.03.63.11.12.2.09.64-.08.77-.3.03-.52,0-.78-.28-.02-.11.04-.54.23-.61Z"/>
    <path class="cls-1" d="M12.6,20c.25-.08.55-.04.64.11.13.22.1.63-.08.78-.3.03-.52,0-.78-.28-.02-.11.04-.55.22-.61Z"/>
    <path class="cls-1" d="M11.26,15.84l.7.14c.04.45,0,.56-.11.75-.3.08-.6.04-.7-.11-.16-.23-.1-.52.12-.79Z"/>
    <path class="cls-1" d="M14.74,16.46c-.06.21-.39.38-.53.38-.22,0-.44-.22-.44-.45,0-.17.21-.51.4-.54.24-.04.65.36.57.61Z"/>
    <path class="cls-1" d="M11.46,22.69c.16-.06.5.16.54.32.05.2-.13.55-.32.62-.2.07-.56-.11-.63-.32-.06-.19.14-.53.41-.63Z"/>
    <path class="cls-1" d="M11.46,18.61c.16-.06.5.17.54.32.05.21-.12.55-.32.62-.2.07-.56-.11-.63-.32-.06-.19.14-.53.41-.63Z"/>
    <path class="cls-1" d="M10.08,17.22c.18-.04.57.22.58.38.02.19-.26.54-.45.58-.16.04-.43-.18-.54-.35-.11-.17.14-.57.41-.62Z"/>
    <path class="cls-1" d="M10.02,20.9c-.1,0-.27-.22-.28-.3-.03-.2.13-.6.38-.63.27-.04.49.13.53.32.08.4-.23.65-.62.61Z"/>
    <path class="cls-1" d="M8.77,21.29c.16-.04.51.25.54.42.03.18-.23.51-.43.56-.16.04-.44-.18-.54-.35-.1-.18.12-.55.42-.63Z"/>
    <path class="cls-1" d="M10.09,21.3c.18-.04.52.25.55.42.03.18-.23.51-.43.56-.16.04-.44-.18-.54-.35-.11-.17.13-.55.42-.63Z"/>
    <path class="cls-1" d="M9.92,24.92c-.13-.04-.19-.31-.18-.44.02-.17.29-.48.47-.48.33,0,.47.33.45.58-.01.29-.44.42-.74.34Z"/>
    <path class="cls-1" d="M11.46,24.01c.15-.06.5.16.54.32.05.19-.11.54-.31.62-.23.09-.5-.08-.61-.34-.07-.17.1-.49.38-.6Z"/>
    <path class="cls-1" d="M10.03,15.9c.36-.05.57.08.61.25.06.29-.09.61-.27.63-.27.02-.55,0-.6-.16-.08-.23.01-.69.27-.72Z"/>
    <path class="cls-1" d="M10.22,23.64c-.15,0-.46-.27-.47-.4-.01-.15.04-.42.12-.52.31-.08.7.02.77.26.08.28-.11.68-.42.66Z"/>
    <path class="cls-1" d="M8.84,15.86c.18-.03.43.29.43.51,0,.24-.15.4-.4.42-.25.02-.5-.13-.53-.34-.05-.29.15-.54.5-.59Z"/>
    <path class="cls-1" d="M11.41,19.97c.29-.03.49.07.54.23.07.25,0,.54-.28.67-.26.08-.52-.06-.59-.3-.09-.14.13-.57.33-.59Z"/>
    <path class="cls-1" d="M10.22,19.56c-.14,0-.45-.27-.47-.4-.01-.15.04-.41.12-.52.31-.07.7.03.75.24.08.32-.06.68-.4.68Z"/>
    <path class="cls-1" d="M9.24,19.21c-.06.15-.36.33-.51.31-.19-.03-.42-.32-.41-.51,0-.17.36-.44.55-.42l.39.17c.08.07.04.28-.02.45Z"/>
    <path class="cls-1" d="M9.23,24.34l.08.38c.02.09-.25.2-.34.21-.19.02-.54-.09-.61-.25-.07-.17.07-.51.22-.59.23-.13.6-.01.65.25Z"/>
    <path class="cls-1" d="M8.83,19.94c.19-.02.42.28.43.51.01.23-.15.42-.4.41-.21,0-.51-.16-.54-.33-.05-.24.17-.56.5-.59Z"/>
    <path class="cls-1" d="M8.6,22.73c.35-.14.6,0,.66.24.04.17-.11.54-.32.61-.15.05-.4-.06-.56-.21-.13-.13-.02-.54.22-.63Z"/>
    <path class="cls-1" d="M8.55,17.32c.19-.09.52-.02.69.11,0,.27,0,.43-.24.76-.11.03-.42-.08-.6-.24-.14-.12-.08-.52.14-.63Z"/>
    <path class="cls-1" d="M5.33,14.9c-.09.25-.48.64-.72.64-.24-.03-.53-.56-.39-.72l.52-.56.59.64Z"/>
  </g>
</svg>